<svg width="320" height="80" viewBox="0 0 320 80" fill="none" xmlns="http://www.w3.org/2000/svg">
<path d="M64.9196 58.1999L35.0059 75.4706V23.1301L64.9196 5.85938V58.1999Z" fill="#750B77"/>
<path d="M35.3681 23.0654L5.56641 5.85938V40.2714L35.3681 23.0654Z" fill="#9B1C82"/>
<path d="M5.56641 57.991V40.4287L35.155 58.2991V75.5835L5.56641 57.991Z" fill="#9B1C82"/>
<path d="M67.994 12.1285C67.994 10.1452 67.9929 8.7103 67.9008 7.58197C67.8094 6.46408 67.6329 5.72441 67.3234 5.11701C66.7336 3.95945 65.7923 3.01816 64.6347 2.42833C64.0273 2.11882 63.2873 1.94178 62.1692 1.85043C61.0409 1.75827 59.6064 1.75774 57.6232 1.75774H12.1285C10.1452 1.75774 8.71033 1.75824 7.582 1.85043C6.46403 1.94178 5.72446 2.11886 5.11704 2.42833C3.95945 3.01816 3.01818 3.95942 2.42836 5.11701C2.11889 5.72443 1.9418 6.464 1.85046 7.58197C1.75827 8.7103 1.75776 10.1452 1.75776 12.1285V53.6568C1.75776 56.048 1.76803 57.0498 2.05187 57.935C2.31188 58.7458 2.73688 59.4943 3.30094 60.1322C3.91678 60.8286 4.77303 61.3487 6.82843 62.5708L29.5755 76.096C31.7194 77.3708 32.6233 77.8955 33.5659 78.1009C34.429 78.2891 35.3227 78.2891 36.1859 78.1009C37.1284 77.8955 38.032 77.3706 40.1757 76.096L62.9233 62.5708C64.9785 61.3489 65.8345 60.8285 66.4503 60.1322C67.0143 59.4943 67.4399 58.7459 67.6999 57.935C67.9837 57.0498 67.994 56.0479 67.994 53.6568V12.1285ZM69.7518 53.6568C69.7518 55.9313 69.7612 57.2626 69.3735 58.4717C69.0392 59.5142 68.4921 60.4764 67.7669 61.2966C66.9257 62.2477 65.7765 62.9196 63.8217 64.0819L41.074 77.6072C39.0354 78.8193 37.8478 79.538 36.5601 79.8186C35.4504 80.0605 34.3014 80.0605 33.1917 79.8186C31.9039 79.538 30.7159 78.8194 28.6772 77.6072L5.93011 64.0819C3.97509 62.9195 2.82549 62.2478 1.98435 61.2966C1.25912 60.4764 0.711965 59.5142 0.377664 58.4717C-0.00998418 57.2626 2.41289e-05 55.9312 2.41289e-05 53.6568V12.1285C2.41289e-05 10.1742 -0.000381955 8.65544 0.0990115 7.43892C0.199244 6.21215 0.405488 5.21536 0.862301 4.31882C1.62063 2.83055 2.83058 1.62061 4.31885 0.862276C5.21539 0.405464 6.21218 0.199219 7.43895 0.0989873C8.65547 -0.00040606 10.1742 2.70099e-08 12.1285 2.70099e-08H57.6232C59.5775 -7.32049e-09 61.0963 -0.000403563 62.3128 0.0989873C63.5395 0.199227 64.5365 0.405496 65.4329 0.862276C66.9211 1.62063 68.1312 2.83059 68.8895 4.31882C69.3463 5.21536 69.5525 6.21216 69.6528 7.43892C69.7522 8.65544 69.7518 10.1742 69.7518 12.1285V53.6568Z" fill="#861888"/>
<path d="M201.303 26.0444V6.97363H213.59V8.89351H203.351V15.5235H213.078V17.4434H203.351V24.1245H213.59V26.0444H201.303Z" fill="#3D0B3D"/>
<path d="M192.273 26.0444V8.89351H187V6.97363H199.543V8.89351H194.321V26.0444H192.273Z" fill="#3D0B3D"/>
<path d="M172.344 26.0444L179.307 6.97363H181.508L188.471 26.0444H186.32L184.682 21.3855H176.158L174.494 26.0444H172.344ZM176.823 19.4656H183.965L180.1 8.50953H180.714L176.823 19.4656Z" fill="#3D0B3D"/>
<path d="M163.788 26.3511C162.44 26.3511 161.203 26.1122 160.076 25.6344C158.95 25.1395 157.969 24.4569 157.133 23.5865C156.313 22.6991 155.673 21.6581 155.213 20.4635C154.752 19.2689 154.521 17.9549 154.521 16.5214C154.521 15.0879 154.752 13.7738 155.213 12.5792C155.673 11.3846 156.313 10.3436 157.133 9.45624C157.969 8.56883 158.95 7.8862 160.076 7.40837C161.203 6.91347 162.44 6.66602 163.788 6.66602C165.085 6.66602 166.246 6.8964 167.269 7.35717C168.31 7.81794 169.181 8.41524 169.881 9.14906C170.597 9.86581 171.109 10.6252 171.416 11.4273L169.497 12.2721C169.019 11.1628 168.285 10.2754 167.295 9.60983C166.322 8.9272 165.153 8.58589 163.788 8.58589C162.389 8.58589 161.143 8.91867 160.051 9.58423C158.959 10.2498 158.105 11.1799 157.491 12.3744C156.877 13.552 156.569 14.9343 156.569 16.5214C156.569 18.0914 156.877 19.4737 157.491 20.6683C158.105 21.8629 158.959 22.793 160.051 23.4585C161.143 24.107 162.389 24.4313 163.788 24.4313C165.153 24.4313 166.322 24.0985 167.295 23.4329C168.285 22.7674 169.019 21.88 169.497 20.7707L171.416 21.6155C171.109 22.4005 170.597 23.1599 169.881 23.8937C169.181 24.6105 168.31 25.1992 167.269 25.66C166.246 26.1208 165.085 26.3511 163.788 26.3511Z" fill="#3D0B3D"/>
<path d="M142.363 26.3511C141.032 26.3511 139.786 26.1122 138.625 25.6344C137.482 25.1395 136.475 24.4569 135.605 23.5865C134.734 22.6991 134.052 21.6581 133.557 20.4635C133.062 19.2519 132.814 17.9293 132.814 16.4958C132.814 15.0623 133.062 13.7482 133.557 12.5536C134.052 11.342 134.734 10.301 135.605 9.43064C136.475 8.54323 137.482 7.86061 138.625 7.38277C139.786 6.90493 141.032 6.66602 142.363 6.66602C143.694 6.66602 144.931 6.91347 146.074 7.40837C147.235 7.8862 148.25 8.56883 149.121 9.45624C149.991 10.3266 150.674 11.359 151.168 12.5536C151.663 13.7482 151.911 15.0623 151.911 16.4958C151.911 17.9293 151.663 19.2519 151.168 20.4635C150.674 21.6581 149.991 22.6991 149.121 23.5865C148.25 24.4569 147.235 25.1395 146.074 25.6344C144.931 26.1122 143.694 26.3511 142.363 26.3511ZM142.363 24.4313C143.472 24.4313 144.479 24.2265 145.383 23.8169C146.305 23.4073 147.098 22.8356 147.764 22.1018C148.429 21.368 148.941 20.5233 149.3 19.5676C149.675 18.6119 149.863 17.588 149.863 16.4958C149.863 15.4207 149.675 14.4053 149.3 13.4496C148.941 12.4939 148.429 11.6492 147.764 10.9153C147.098 10.1815 146.305 9.60983 145.383 9.20025C144.479 8.79068 143.472 8.58589 142.363 8.58589C141.253 8.58589 140.238 8.79068 139.316 9.20025C138.412 9.60983 137.627 10.1815 136.961 10.9153C136.296 11.6492 135.775 12.4939 135.4 13.4496C135.042 14.4053 134.862 15.4207 134.862 16.4958C134.862 17.588 135.042 18.6119 135.4 19.5676C135.775 20.5233 136.296 21.368 136.961 22.1018C137.627 22.8356 138.42 23.4073 139.342 23.8169C140.264 24.2265 141.27 24.4313 142.363 24.4313Z" fill="#3D0B3D"/>
<path d="M122.965 26.0444L115.977 6.97363H118.101L124.245 24.2269H123.835L129.953 6.97363H132.104L125.115 26.0444H122.965Z" fill="#3D0B3D"/>
<path d="M100.217 26.0444V6.97363H106.488C108.383 6.97363 110.03 7.36614 111.429 8.15116C112.828 8.91911 113.912 10.0198 114.68 11.4533C115.448 12.8698 115.832 14.5507 115.832 16.4962C115.832 18.4246 115.448 20.1056 114.68 21.5391C113.912 22.9726 112.828 24.0819 111.429 24.8669C110.03 25.6519 108.383 26.0444 106.488 26.0444H100.217ZM102.265 24.1245H106.488C107.956 24.1245 109.227 23.8173 110.303 23.203C111.378 22.5716 112.205 21.6842 112.786 20.5408C113.383 19.3974 113.682 18.0492 113.682 16.4962C113.682 14.9433 113.383 13.6036 112.786 12.4773C112.188 11.3339 111.352 10.455 110.277 9.84065C109.202 9.20922 107.939 8.89351 106.488 8.89351H102.265V24.1245Z" fill="#3D0B3D"/>
<path d="M82.3145 26.0444L89.2772 6.97363H91.4787L98.4414 26.0444H96.2912L94.6529 21.3855H86.1286L84.4647 26.0444H82.3145ZM86.7942 19.4656H93.9361L90.0708 8.50953H90.6851L86.7942 19.4656Z" fill="#3D0B3D"/>
<path d="M294.176 64.8864L303.732 37.1836H310.277L319.833 64.8864H314.33L312.359 58.9368H301.65L299.642 64.8864H294.176ZM303.1 54.4746H310.909L306.298 40.679H307.711L303.1 54.4746Z" fill="#3D0B3D"/>
<path d="M264.742 64.8864V37.1836H269.576L279.951 51.2767H277.645L287.797 37.1836H292.631V64.8864H287.537V42.9473L289.507 43.4307L278.984 57.4494H278.389L268.126 43.4307L269.799 42.9473V64.8864H264.742Z" fill="#3D0B3D"/>
<path d="M241.645 64.8864V37.1836H251.945C253.829 37.1836 255.49 37.5307 256.928 38.2248C258.39 38.8941 259.531 39.8857 260.349 41.1996C261.167 42.4887 261.576 44.0628 261.576 45.9221C261.576 47.8309 261.117 49.4546 260.2 50.7933C259.307 52.132 258.093 53.1236 256.556 53.7681L262.914 64.8864H257.188L250.383 52.7269L253.655 54.6605H246.702V64.8864H241.645ZM246.702 50.1983H252.019C252.936 50.1983 253.73 50.0248 254.399 49.6778C255.068 49.3059 255.589 48.7977 255.961 48.1532C256.333 47.5086 256.519 46.7649 256.519 45.9221C256.519 45.0544 256.333 44.3107 255.961 43.691C255.589 43.0464 255.068 42.5506 254.399 42.2036C253.73 41.8317 252.936 41.6458 252.019 41.6458H246.702V50.1983Z" fill="#3D0B3D"/>
<path d="M214.391 64.8864L223.947 37.1836H230.492L240.048 64.8864H234.545L232.574 58.9368H221.865L219.857 64.8864H214.391ZM223.315 54.4746H231.124L226.513 40.679H227.926L223.315 54.4746Z" fill="#3D0B3D"/>
<path d="M190.875 64.8864V37.1836H195.932V49.2687H207.72V37.1836H212.814V64.8864H207.72V53.7309H195.932V64.8864H190.875Z" fill="#3D0B3D"/>
<path d="M178.177 65.3326C176.417 65.3326 174.781 65.0103 173.268 64.3658C171.781 63.7212 170.492 62.8288 169.401 61.6884C168.335 60.5233 167.554 59.1723 167.059 57.6353L171.26 55.8132C171.93 57.3998 172.897 58.6517 174.161 59.5689C175.425 60.4613 176.851 60.9076 178.437 60.9076C179.33 60.9076 180.098 60.7712 180.743 60.4985C181.412 60.201 181.92 59.8044 182.267 59.3086C182.639 58.8128 182.825 58.2178 182.825 57.5237C182.825 56.7057 182.577 56.0363 182.081 55.5157C181.61 54.9704 180.891 54.5489 179.925 54.2514L174.607 52.5409C172.45 51.8716 170.827 50.8676 169.736 49.5289C168.645 48.1903 168.1 46.6161 168.1 44.8065C168.1 43.2199 168.484 41.8193 169.253 40.6045C170.046 39.3898 171.137 38.4478 172.525 37.7785C173.938 37.0844 175.549 36.7373 177.359 36.7373C179.02 36.7373 180.544 37.0348 181.933 37.6297C183.321 38.1999 184.511 39.0056 185.502 40.0468C186.519 41.0632 187.275 42.2655 187.771 43.6537L183.606 45.513C183.061 44.1247 182.242 43.0588 181.152 42.3151C180.061 41.5466 178.797 41.1623 177.359 41.1623C176.516 41.1623 175.772 41.3111 175.128 41.6085C174.483 41.8812 173.975 42.2779 173.603 42.7985C173.256 43.2943 173.083 43.8892 173.083 44.5833C173.083 45.3518 173.33 46.0336 173.826 46.6285C174.322 47.1987 175.078 47.6449 176.095 47.9672L181.189 49.5661C183.395 50.285 185.044 51.2766 186.135 52.5409C187.25 53.8052 187.808 55.367 187.808 57.2262C187.808 58.8128 187.399 60.2134 186.581 61.4281C185.763 62.6429 184.635 63.5973 183.197 64.2914C181.759 64.9855 180.086 65.3326 178.177 65.3326Z" fill="#3D0B3D"/>
<path d="M135.912 64.8864L145.469 37.1836H152.013L161.57 64.8864H156.066L154.096 58.9368H143.386L141.378 64.8864H135.912ZM144.837 54.4746H152.645L148.034 40.679H149.447L144.837 54.4746Z" fill="#3D0B3D"/>
<path d="M124.798 64.8864V52.6154L115.465 37.1836H121.229L128.368 49.2315H126.323L133.425 37.1836H139.189L129.893 52.5782V64.8864H124.798Z" fill="#3D0B3D"/>
<path d="M93.0957 64.8864L102.652 37.1836H109.197L118.753 64.8864H113.25L111.279 58.9368H100.57L98.5619 64.8864H93.0957ZM102.02 54.4746H109.829L105.218 40.679H106.631L102.02 54.4746Z" fill="#3D0B3D"/>
<path d="M81.752 64.8864V60.2383H83.3509C84.5408 60.2383 85.4829 59.9036 86.177 59.2343C86.8959 58.5402 87.2553 57.623 87.2553 56.4826V37.1836H92.3497V56.2967C92.3497 58.0072 91.9778 59.507 91.2341 60.7961C90.5152 62.0852 89.474 63.0891 88.1106 63.8081C86.7719 64.527 85.1854 64.8864 83.3509 64.8864H81.752Z" fill="#3D0B3D"/>
</svg>
