<svg width="554" height="137" viewBox="0 0 554 137" fill="none" xmlns="http://www.w3.org/2000/svg">
<path d="M535.477 91.201H523.103C522.825 91.201 522.714 91.312 522.603 91.6449L519.607 99.5798C519.052 100.967 518.774 102.299 518.774 102.965C518.774 103.963 519.274 104.685 520.994 104.685H521.826C522.492 104.685 522.659 104.796 522.659 105.129C522.659 105.573 522.326 105.684 521.715 105.684C519.94 105.684 517.554 105.517 515.833 105.517C515.223 105.517 512.171 105.684 509.286 105.684C508.564 105.684 508.231 105.573 508.231 105.129C508.231 104.796 508.453 104.685 508.897 104.685C509.397 104.685 510.174 104.629 510.617 104.574C513.17 104.241 514.224 102.354 515.334 99.5798L529.262 64.7327C529.928 63.1236 530.261 62.5132 530.815 62.5132C531.315 62.5132 531.648 63.0126 532.203 64.2888C533.534 67.3407 542.413 89.9802 545.964 98.4146C548.073 103.409 549.682 104.185 550.847 104.463C551.679 104.629 552.512 104.685 553.178 104.685C553.621 104.685 553.899 104.74 553.899 105.129C553.899 105.573 553.4 105.684 551.346 105.684C549.349 105.684 545.298 105.684 540.859 105.573C539.86 105.517 539.194 105.517 539.194 105.129C539.194 104.796 539.416 104.685 539.971 104.629C540.36 104.518 540.748 104.019 540.471 103.353L536.031 91.5894C535.92 91.312 535.754 91.201 535.477 91.201ZM524.212 88.4265H534.422C534.7 88.4265 534.755 88.2601 534.7 88.0936L529.706 74.3878C529.65 74.1659 529.595 73.8884 529.428 73.8884C529.262 73.8884 529.151 74.1659 529.095 74.3878L523.99 88.0381C523.935 88.2601 523.99 88.4265 524.212 88.4265Z" fill="#2B082C"/>
<path d="M460.139 100.135L465.632 63.9559C465.799 63.0126 466.132 62.5132 466.576 62.5132C467.02 62.5132 467.353 62.7906 468.074 64.2333L483.222 95.5291L498.315 63.8449C498.759 62.9571 499.037 62.5132 499.536 62.5132C500.036 62.5132 500.369 63.0681 500.535 64.2333L505.585 98.5255C506.084 102.021 506.639 103.631 508.304 104.13C509.913 104.629 511.022 104.685 511.744 104.685C512.243 104.685 512.632 104.74 512.632 105.073C512.632 105.517 511.966 105.684 511.189 105.684C509.802 105.684 502.144 105.517 499.925 105.351C498.648 105.24 498.315 105.073 498.315 104.74C498.315 104.463 498.537 104.296 498.926 104.13C499.259 104.019 499.425 103.298 499.203 101.744L495.874 77.3287H495.652L483.555 102.521C482.279 105.129 482.002 105.628 481.502 105.628C481.003 105.628 480.448 104.518 479.56 102.854C478.228 100.301 473.845 91.8114 473.179 90.2577C472.68 89.0924 469.35 82.1008 467.408 77.9391H467.186L464.301 100.024C464.19 101.023 464.134 101.744 464.134 102.632C464.134 103.686 464.856 104.185 465.799 104.407C466.798 104.629 467.575 104.685 468.129 104.685C468.573 104.685 468.962 104.796 468.962 105.073C468.962 105.573 468.462 105.684 467.63 105.684C465.3 105.684 462.803 105.517 461.804 105.517C460.749 105.517 458.086 105.684 456.31 105.684C455.755 105.684 455.312 105.573 455.312 105.073C455.312 104.796 455.644 104.685 456.199 104.685C456.643 104.685 457.032 104.685 457.864 104.518C459.418 104.185 459.862 102.021 460.139 100.135Z" fill="#2B082C"/>
<path d="M422.802 89.5922V79.8262C422.802 71.3919 422.802 69.8382 422.691 68.0625C422.58 66.1759 422.136 65.2881 420.305 64.8996C419.861 64.7887 418.917 64.7332 418.141 64.7332C417.53 64.7332 417.197 64.6222 417.197 64.2338C417.197 63.8454 417.586 63.7344 418.418 63.7344C421.359 63.7344 424.855 63.9008 426.02 63.9008C427.907 63.9008 432.124 63.7344 433.844 63.7344C437.34 63.7344 441.058 64.0673 444.054 66.1204C445.608 67.1747 447.827 70.0046 447.827 73.7224C447.827 77.8286 446.107 81.6018 440.503 86.1519C445.441 92.3667 449.27 97.3052 452.544 100.746C455.651 103.964 457.926 104.352 458.759 104.519C459.369 104.63 459.868 104.685 460.312 104.685C460.756 104.685 460.978 104.852 460.978 105.129C460.978 105.573 460.59 105.684 459.924 105.684H454.652C451.545 105.684 450.158 105.407 448.715 104.63C446.329 103.354 444.22 100.746 441.113 96.4729C438.893 93.421 436.341 89.6477 435.62 88.8154C435.342 88.4825 435.009 88.427 434.621 88.427L429.793 88.316C429.516 88.316 429.349 88.427 429.349 88.7599V89.5367C429.349 94.6972 429.349 99.0809 429.627 101.411C429.793 103.021 430.126 104.241 431.791 104.463C432.623 104.574 433.844 104.685 434.51 104.685C434.954 104.685 435.176 104.852 435.176 105.129C435.176 105.518 434.787 105.684 434.066 105.684C430.848 105.684 426.741 105.518 425.909 105.518C424.855 105.518 421.359 105.684 419.139 105.684C418.418 105.684 418.03 105.518 418.03 105.129C418.03 104.852 418.252 104.685 418.917 104.685C419.75 104.685 420.416 104.574 420.915 104.463C422.025 104.241 422.302 103.021 422.524 101.411C422.802 99.0809 422.802 94.6972 422.802 89.5922ZM429.349 67.3412V84.2098C429.349 84.8202 429.46 85.0421 429.849 85.2086C431.014 85.597 432.679 85.7635 434.066 85.7635C436.285 85.7635 437.007 85.5415 438.006 84.8202C439.67 83.5994 441.279 81.0469 441.279 76.4968C441.279 68.6174 436.064 66.3424 432.79 66.3424C431.402 66.3424 430.404 66.3978 429.849 66.5643C429.46 66.6753 429.349 66.8972 429.349 67.3412Z" fill="#2B082C"/>
<path d="M399.652 91.201H387.278C387.001 91.201 386.89 91.312 386.779 91.6449L383.782 99.5798C383.228 100.967 382.95 102.299 382.95 102.965C382.95 103.963 383.45 104.685 385.17 104.685H386.002C386.668 104.685 386.834 104.796 386.834 105.129C386.834 105.573 386.501 105.684 385.891 105.684C384.115 105.684 381.729 105.517 380.009 105.517C379.399 105.517 376.347 105.684 373.462 105.684C372.74 105.684 372.407 105.573 372.407 105.129C372.407 104.796 372.629 104.685 373.073 104.685C373.572 104.685 374.349 104.629 374.793 104.574C377.346 104.241 378.4 102.354 379.51 99.5798L393.438 64.7327C394.103 63.1236 394.436 62.5132 394.991 62.5132C395.491 62.5132 395.824 63.0126 396.378 64.2888C397.71 67.3407 406.588 89.9802 410.14 98.4146C412.248 103.409 413.857 104.185 415.023 104.463C415.855 104.629 416.687 104.685 417.353 104.685C417.797 104.685 418.075 104.74 418.075 105.129C418.075 105.573 417.575 105.684 415.522 105.684C413.525 105.684 409.474 105.684 405.035 105.573C404.036 105.517 403.37 105.517 403.37 105.129C403.37 104.796 403.592 104.685 404.147 104.629C404.535 104.518 404.924 104.019 404.646 103.353L400.207 91.5894C400.096 91.312 399.93 91.201 399.652 91.201ZM388.388 88.4265H398.598C398.875 88.4265 398.931 88.2601 398.875 88.0936L393.881 74.3878C393.826 74.1659 393.77 73.8884 393.604 73.8884C393.438 73.8884 393.327 74.1659 393.271 74.3878L388.166 88.0381C388.111 88.2601 388.166 88.4265 388.388 88.4265Z" fill="#2B082C"/>
<path d="M339.518 81.3799H360.715C360.881 81.3799 361.048 81.2689 361.048 80.9914V79.8262C361.048 71.3919 361.048 69.8382 360.937 68.0625C360.826 66.1759 360.382 65.2881 358.551 64.8996C358.107 64.7887 357.163 64.7332 356.387 64.7332C355.776 64.7332 355.443 64.6222 355.443 64.2338C355.443 63.8454 355.832 63.7344 356.609 63.7344C359.605 63.7344 363.101 63.9008 364.599 63.9008C365.931 63.9008 369.427 63.7344 371.591 63.7344C372.367 63.7344 372.756 63.8454 372.756 64.2338C372.756 64.6222 372.423 64.7332 371.757 64.7332C371.313 64.7332 370.814 64.7887 370.148 64.8996C368.65 65.1771 368.206 66.1204 368.095 68.0625C367.984 69.8382 367.984 71.3919 367.984 79.8262V89.5922C367.984 94.6972 367.984 99.0809 368.261 101.467C368.428 103.021 368.761 104.241 370.425 104.463C371.202 104.574 372.423 104.685 373.255 104.685C373.866 104.685 374.143 104.852 374.143 105.129C374.143 105.518 373.699 105.684 373.033 105.684C369.427 105.684 365.931 105.518 364.377 105.518C363.101 105.518 359.605 105.684 357.441 105.684C356.664 105.684 356.276 105.518 356.276 105.129C356.276 104.852 356.498 104.685 357.163 104.685C357.996 104.685 358.662 104.574 359.161 104.463C360.271 104.241 360.548 103.021 360.77 101.411C361.048 99.0809 361.048 94.6972 361.048 89.5922V84.7092C361.048 84.4873 360.881 84.3763 360.715 84.3763H339.518C339.351 84.3763 339.185 84.4318 339.185 84.7092V89.5922C339.185 94.6972 339.185 99.0809 339.462 101.467C339.629 103.021 339.962 104.241 341.627 104.463C342.403 104.574 343.624 104.685 344.456 104.685C345.067 104.685 345.344 104.852 345.344 105.129C345.344 105.518 344.9 105.684 344.235 105.684C340.628 105.684 337.132 105.518 335.578 105.518C334.302 105.518 330.806 105.684 328.587 105.684C327.865 105.684 327.477 105.518 327.477 105.129C327.477 104.852 327.699 104.685 328.365 104.685C329.197 104.685 329.863 104.574 330.362 104.463C331.472 104.241 331.75 103.021 331.971 101.411C332.249 99.0809 332.249 94.6972 332.249 89.5922V79.8262C332.249 71.3919 332.249 69.8382 332.138 68.0625C332.027 66.1759 331.583 65.2881 329.752 64.8996C329.308 64.7887 328.365 64.7332 327.588 64.7332C326.977 64.7332 326.645 64.6222 326.645 64.2338C326.645 63.8454 327.033 63.7344 327.81 63.7344C330.806 63.7344 334.302 63.9008 335.8 63.9008C337.132 63.9008 340.628 63.7344 342.792 63.7344C343.569 63.7344 343.957 63.8454 343.957 64.2338C343.957 64.6222 343.624 64.7332 342.958 64.7332C342.514 64.7332 342.015 64.7887 341.349 64.8996C339.851 65.1771 339.407 66.1204 339.296 68.0625C339.185 69.8382 339.185 71.3919 339.185 79.8262V80.9914C339.185 81.2689 339.351 81.3799 339.518 81.3799Z" fill="#2B082C"/>
<path d="M306.113 106.461C302.894 106.461 300.397 106.072 298.011 105.018C297.123 104.63 296.957 104.352 296.957 103.132C296.957 100.08 297.179 96.7503 297.234 95.8625C297.29 95.0302 297.456 94.4198 297.9 94.4198C298.4 94.4198 298.455 94.9192 298.455 95.3631C298.455 96.0844 298.677 97.2497 298.955 98.193C300.175 102.299 303.449 103.797 306.89 103.797C311.884 103.797 314.325 100.413 314.325 97.4717C314.325 94.7527 313.493 92.2002 308.887 88.5934L306.335 86.5958C300.231 81.8238 298.122 77.9395 298.122 73.4449C298.122 67.3411 303.227 62.9575 310.94 62.9575C314.547 62.9575 316.878 63.5124 318.32 63.9008C318.82 64.0118 319.097 64.1783 319.097 64.5667C319.097 65.2881 318.875 66.8972 318.875 71.2254C318.875 72.4461 318.709 72.89 318.265 72.89C317.876 72.89 317.71 72.5571 317.71 71.8912C317.71 71.3918 317.432 69.6717 316.267 68.229C315.435 67.1747 313.826 65.51 310.219 65.51C306.113 65.51 303.616 67.896 303.616 71.2254C303.616 73.7779 304.892 75.72 309.498 79.2158L311.051 80.3811C317.765 85.4306 320.151 89.2593 320.151 94.5308C320.151 97.7491 318.931 101.578 314.935 104.186C312.161 105.961 309.054 106.461 306.113 106.461Z" fill="#2B082C"/>
<path d="M262.388 91.201H250.014C249.736 91.201 249.625 91.312 249.514 91.6449L246.518 99.5798C245.963 100.967 245.685 102.299 245.685 102.965C245.685 103.963 246.185 104.685 247.905 104.685H248.737C249.403 104.685 249.57 104.796 249.57 105.129C249.57 105.573 249.237 105.684 248.626 105.684C246.851 105.684 244.465 105.517 242.745 105.517C242.134 105.517 239.082 105.684 236.197 105.684C235.476 105.684 235.143 105.573 235.143 105.129C235.143 104.796 235.365 104.685 235.808 104.685C236.308 104.685 237.085 104.629 237.529 104.574C240.081 104.241 241.135 102.354 242.245 99.5798L256.173 64.7327C256.839 63.1236 257.172 62.5132 257.727 62.5132C258.226 62.5132 258.559 63.0126 259.114 64.2888C260.446 67.3407 269.324 89.9802 272.875 98.4146C274.984 103.409 276.593 104.185 277.758 104.463C278.59 104.629 279.423 104.685 280.089 104.685C280.533 104.685 280.81 104.74 280.81 105.129C280.81 105.573 280.311 105.684 278.258 105.684C276.26 105.684 272.209 105.684 267.77 105.573C266.771 105.517 266.105 105.517 266.105 105.129C266.105 104.796 266.327 104.685 266.882 104.629C267.271 104.518 267.659 104.019 267.382 103.353L262.943 91.5894C262.832 91.312 262.665 91.201 262.388 91.201ZM251.123 88.4265H261.333C261.611 88.4265 261.666 88.2601 261.611 88.0936L256.617 74.3878C256.561 74.1659 256.506 73.8884 256.339 73.8884C256.173 73.8884 256.062 74.1659 256.006 74.3878L250.901 88.0381C250.846 88.2601 250.901 88.4265 251.123 88.4265Z" fill="#2B082C"/>
<path d="M219.028 95.8625V91.3124C219.028 88.316 218.473 87.0952 217.752 85.4861C217.363 84.5982 209.928 72.3907 207.986 69.5052C206.599 67.4521 205.211 66.0649 204.157 65.4545C203.436 65.0661 202.492 64.7332 201.826 64.7332C201.383 64.7332 200.994 64.6222 200.994 64.2338C200.994 63.9008 201.383 63.7344 202.048 63.7344C203.047 63.7344 207.209 63.9008 209.04 63.9008C210.205 63.9008 212.48 63.7344 214.977 63.7344C215.532 63.7344 215.81 63.9008 215.81 64.2338C215.81 64.5667 215.421 64.6222 214.589 64.8442C214.09 64.9551 213.812 65.399 213.812 65.843C213.812 66.2869 214.09 66.9527 214.478 67.7296C215.255 69.3943 223.023 82.7671 223.911 84.3208C224.466 82.9891 231.458 70.7815 232.234 69.0613C232.789 67.8406 233.011 66.8972 233.011 66.1759C233.011 65.621 232.789 65.0106 231.846 64.7887C231.347 64.6777 230.847 64.5667 230.847 64.2338C230.847 63.8454 231.125 63.7344 231.791 63.7344C233.622 63.7344 235.397 63.9008 237.006 63.9008C238.227 63.9008 241.89 63.7344 242.944 63.7344C243.554 63.7344 243.943 63.8454 243.943 64.1783C243.943 64.5667 243.499 64.7332 242.888 64.7332C242.333 64.7332 241.279 64.9551 240.447 65.399C239.282 65.9539 238.671 66.6198 237.45 68.118C235.619 70.3376 227.851 83.3775 226.852 85.7635C226.02 87.7611 226.02 89.4813 226.02 91.3124V95.8625C226.02 96.7503 226.02 99.0809 226.186 101.411C226.297 103.021 226.797 104.241 228.461 104.463C229.238 104.574 230.459 104.685 231.236 104.685C231.846 104.685 232.123 104.852 232.123 105.129C232.123 105.518 231.68 105.684 230.958 105.684C227.462 105.684 223.967 105.518 222.468 105.518C221.081 105.518 217.585 105.684 215.532 105.684C214.755 105.684 214.311 105.573 214.311 105.129C214.311 104.852 214.589 104.685 215.199 104.685C215.976 104.685 216.642 104.574 217.141 104.463C218.251 104.241 218.751 103.021 218.862 101.411C219.028 99.0809 219.028 96.7503 219.028 95.8625Z" fill="#2B082C"/>
<path d="M191.615 91.201H179.241C178.964 91.201 178.853 91.312 178.742 91.6449L175.745 99.5798C175.19 100.967 174.913 102.299 174.913 102.965C174.913 103.963 175.412 104.685 177.133 104.685H177.965C178.631 104.685 178.797 104.796 178.797 105.129C178.797 105.573 178.464 105.684 177.854 105.684C176.078 105.684 173.692 105.517 171.972 105.517C171.362 105.517 168.31 105.684 165.424 105.684C164.703 105.684 164.37 105.573 164.37 105.129C164.37 104.796 164.592 104.685 165.036 104.685C165.535 104.685 166.312 104.629 166.756 104.574C169.309 104.241 170.363 102.354 171.473 99.5798L185.4 64.7327C186.066 63.1236 186.399 62.5132 186.954 62.5132C187.454 62.5132 187.786 63.0126 188.341 64.2888C189.673 67.3407 198.551 89.9802 202.103 98.4146C204.211 103.409 205.82 104.185 206.986 104.463C207.818 104.629 208.65 104.685 209.316 104.685C209.76 104.685 210.038 104.74 210.038 105.129C210.038 105.573 209.538 105.684 207.485 105.684C205.487 105.684 201.437 105.684 196.998 105.573C195.999 105.517 195.333 105.517 195.333 105.129C195.333 104.796 195.555 104.685 196.11 104.629C196.498 104.518 196.887 104.019 196.609 103.353L192.17 91.5894C192.059 91.312 191.893 91.201 191.615 91.201ZM180.351 88.4265H190.561C190.838 88.4265 190.894 88.2601 190.838 88.0936L185.844 74.3878C185.789 74.1659 185.733 73.8884 185.567 73.8884C185.4 73.8884 185.289 74.1659 185.234 74.3878L180.129 88.0381C180.074 88.2601 180.129 88.4265 180.351 88.4265Z" fill="#2B082C"/>
<path d="M155.046 95.7515V79.8262C155.046 71.3919 155.046 69.8382 154.935 68.0625C154.824 66.1759 154.38 65.2881 152.549 64.8996C152.105 64.7887 151.162 64.7332 150.385 64.7332C149.774 64.7332 149.442 64.6222 149.442 64.2338C149.442 63.8454 149.83 63.7344 150.662 63.7344C153.603 63.7344 157.099 63.9008 158.542 63.9008C159.873 63.9008 163.369 63.7344 165.533 63.7344C166.31 63.7344 166.699 63.8454 166.699 64.2338C166.699 64.6222 166.366 64.7332 165.7 64.7332C165.089 64.7332 164.756 64.7887 164.091 64.8996C162.592 65.1771 162.148 66.1204 162.038 68.0625C161.927 69.8382 161.927 71.3919 161.927 79.8262V90.0916C161.927 92.4777 162.093 95.1411 162.093 97.9156C162.093 101.078 161.871 104.63 160.761 107.737C159.596 111.122 156.655 114.951 151.328 118.225C150.607 118.668 149.719 119.112 148.554 119.667C148.165 119.889 147.721 120 147.444 120C147.222 120 147 119.834 147 119.556C147 119.279 147.277 119.057 148.221 118.557C148.942 118.169 149.774 117.559 150.884 116.449C155.101 112.176 155.046 106.627 155.046 95.7515Z" fill="#2B082C"/>
<path d="M389.808 33.4064V25.5057C389.808 18.6824 389.808 17.4255 389.719 15.989C389.629 14.4627 389.27 13.7445 387.788 13.4302C387.429 13.3405 386.666 13.2956 386.038 13.2956C385.544 13.2956 385.274 13.2058 385.274 12.8916C385.274 12.5773 385.589 12.4875 386.262 12.4875C387.474 12.4875 388.776 12.5324 389.898 12.5324C391.065 12.5773 392.098 12.6222 392.726 12.6222C394.163 12.6222 403.096 12.6222 403.949 12.5773C404.802 12.4875 405.52 12.3978 405.879 12.308C406.104 12.2631 406.373 12.1284 406.597 12.1284C406.822 12.1284 406.867 12.308 406.867 12.5324C406.867 12.8467 406.642 13.3853 406.508 15.4503C406.463 15.8992 406.373 17.8744 406.283 18.4131C406.238 18.6375 406.148 18.9069 405.834 18.9069C405.52 18.9069 405.43 18.6824 405.43 18.2784C405.43 17.9642 405.385 17.201 405.161 16.6623C404.847 15.8543 404.398 15.3156 402.153 15.0463C401.39 14.9565 396.677 14.8667 395.779 14.8667C395.554 14.8667 395.465 15.0014 395.465 15.3156V26.6729C395.465 26.9871 395.509 27.1667 395.779 27.1667C396.766 27.1667 401.929 27.1667 402.961 27.0769C404.039 26.9871 404.712 26.8524 405.116 26.4035C405.43 26.0444 405.61 25.82 405.834 25.82C406.014 25.82 406.148 25.9098 406.148 26.1791C406.148 26.4484 405.969 27.1667 405.789 29.4561C405.744 30.3539 405.61 32.1495 405.61 32.4637C405.61 32.8229 405.61 33.3167 405.206 33.3167C404.891 33.3167 404.802 33.1371 404.802 32.9126C404.757 32.4637 404.757 31.8802 404.622 31.2966C404.398 30.3988 403.769 29.7254 402.108 29.5459C401.255 29.4561 396.811 29.4112 395.734 29.4112C395.509 29.4112 395.465 29.5908 395.465 29.8601V33.4064C395.465 34.9327 395.42 39.0626 395.465 40.3644C395.554 43.4619 396.273 44.1352 400.851 44.1352C402.018 44.1352 403.904 44.1352 405.071 43.5965C406.238 43.0579 406.777 42.1152 407.091 40.2747C407.181 39.7809 407.271 39.6013 407.585 39.6013C407.944 39.6013 407.944 39.9604 407.944 40.4093C407.944 41.4418 407.585 44.4944 407.36 45.3922C407.046 46.5593 406.642 46.5593 404.936 46.5593C401.57 46.5593 399.101 46.4695 397.17 46.4246C395.24 46.3349 393.848 46.29 392.502 46.29C392.008 46.29 391.02 46.29 389.943 46.3349C388.911 46.3349 387.743 46.4246 386.846 46.4246C386.262 46.4246 385.948 46.29 385.948 45.9757C385.948 45.7513 386.127 45.6166 386.666 45.6166C387.339 45.6166 387.878 45.5268 388.282 45.437C389.18 45.2575 389.404 44.2699 389.584 42.9681C389.808 41.0827 389.808 37.5363 389.808 33.4064Z" fill="#2B082C"/>
<path d="M365.703 33.4067V15.0017L359.014 15.1813C356.411 15.271 355.333 15.4955 354.66 16.4831C354.211 17.1564 353.987 17.6951 353.897 18.0542C353.807 18.4134 353.672 18.5929 353.403 18.5929C353.089 18.5929 352.999 18.3685 352.999 17.8747C352.999 17.1564 353.852 13.0714 353.942 12.7123C354.076 12.1287 354.211 11.8594 354.48 11.8594C354.84 11.8594 355.288 12.3083 356.411 12.3981C357.713 12.5327 359.418 12.6225 360.9 12.6225H378.676C380.113 12.6225 381.1 12.4878 381.774 12.3981C382.447 12.2634 382.806 12.1736 382.986 12.1736C383.3 12.1736 383.345 12.4429 383.345 13.1163C383.345 14.059 383.21 17.1564 383.21 18.3236C383.165 18.7725 383.076 19.0418 382.806 19.0418C382.447 19.0418 382.357 18.8174 382.312 18.144L382.268 17.6502C382.178 16.4831 380.966 15.2261 376.97 15.1364L371.314 15.0017V33.4067C371.314 37.5366 371.314 41.083 371.539 43.0133C371.673 44.2702 371.943 45.2578 373.289 45.4373C373.918 45.5271 374.906 45.6169 375.579 45.6169C376.073 45.6169 376.297 45.7516 376.297 45.976C376.297 46.2903 375.938 46.4249 375.444 46.4249C372.481 46.4249 369.653 46.2903 368.396 46.2903C367.364 46.2903 364.536 46.4249 362.74 46.4249C362.157 46.4249 361.842 46.2903 361.842 45.976C361.842 45.7516 362.022 45.6169 362.561 45.6169C363.234 45.6169 363.773 45.5271 364.177 45.4373C365.075 45.2578 365.344 44.2702 365.479 42.9684C365.703 41.083 365.703 37.5366 365.703 33.4067Z" fill="#2B082C"/>
<path d="M344.841 34.7083H334.83C334.606 34.7083 334.516 34.7981 334.426 35.0674L332.002 41.4867C331.553 42.609 331.329 43.6864 331.329 44.2251C331.329 45.0331 331.733 45.6167 333.125 45.6167H333.798C334.337 45.6167 334.471 45.7064 334.471 45.9758C334.471 46.3349 334.202 46.4247 333.708 46.4247C332.272 46.4247 330.341 46.29 328.95 46.29C328.456 46.29 325.987 46.4247 323.653 46.4247C323.069 46.4247 322.8 46.3349 322.8 45.9758C322.8 45.7064 322.979 45.6167 323.338 45.6167C323.742 45.6167 324.371 45.5718 324.73 45.5269C326.795 45.2575 327.648 43.7313 328.546 41.4867L339.813 13.2956C340.352 11.9938 340.621 11.5 341.07 11.5C341.474 11.5 341.744 11.904 342.192 12.9365C343.27 15.4055 350.452 33.7207 353.325 40.544C355.031 44.5842 356.333 45.2126 357.276 45.4371C357.949 45.5718 358.622 45.6167 359.161 45.6167C359.52 45.6167 359.745 45.6615 359.745 45.9758C359.745 46.3349 359.341 46.4247 357.68 46.4247C356.064 46.4247 352.787 46.4247 349.195 46.3349C348.387 46.29 347.849 46.29 347.849 45.9758C347.849 45.7064 348.028 45.6167 348.477 45.5718C348.791 45.482 349.106 45.078 348.881 44.5393L345.29 35.0225C345.2 34.7981 345.065 34.7083 344.841 34.7083ZM335.728 32.4638H343.988C344.212 32.4638 344.257 32.3291 344.212 32.1944L340.172 21.1065C340.127 20.927 340.083 20.7025 339.948 20.7025C339.813 20.7025 339.723 20.927 339.679 21.1065L335.549 32.1496C335.504 32.3291 335.549 32.4638 335.728 32.4638Z" fill="#2B082C"/>
<path d="M313.638 47.0534C307.488 47.0534 302.325 45.7067 298.24 42.1604C293.841 38.2998 292.674 33.2721 292.674 28.9177C292.674 25.8652 293.617 20.5681 297.926 16.6178C301.158 13.655 305.423 11.8594 312.111 11.8594C314.895 11.8594 316.555 12.0389 318.62 12.3083C320.326 12.5327 321.763 12.9367 323.109 13.0714C323.603 13.1163 323.783 13.3408 323.783 13.6101C323.783 13.9692 323.648 14.5079 323.558 16.0791C323.469 17.5604 323.513 20.0294 323.424 20.9272C323.379 21.6006 323.289 21.9597 322.885 21.9597C322.526 21.9597 322.436 21.6006 322.436 20.9721C322.391 19.5805 321.808 18.0093 320.685 16.8422C319.204 15.271 315.703 14.059 311.573 14.059C307.667 14.059 305.108 15.0466 303.133 16.8422C299.856 19.8499 299.003 24.1144 299.003 28.4688C299.003 39.1527 307.129 44.4498 313.144 44.4498C317.139 44.4498 319.563 44.0009 321.359 41.9359C322.122 41.083 322.705 39.7812 322.885 38.9731C323.02 38.2549 323.109 38.0753 323.469 38.0753C323.783 38.0753 323.873 38.3896 323.873 38.7487C323.873 39.2874 323.334 43.1928 322.885 44.7191C322.661 45.4822 322.481 45.7067 321.718 46.0209C319.922 46.7392 316.511 47.0534 313.638 47.0534Z" fill="#2B082C"/>
<path d="M270.958 47.0534C258.074 47.0534 252.867 37.402 252.867 29.4564C252.867 21.7801 257.94 11.8594 271.407 11.8594C282.585 11.8594 289.543 18.3685 289.543 28.6484C289.543 38.9283 282.36 47.0534 270.958 47.0534ZM272.843 44.8089C275.986 44.8089 283.258 43.2826 283.258 30.3093C283.258 20.2539 277.467 14.0141 270.105 14.0141C264.943 14.0141 259.062 16.8871 259.062 28.0648C259.062 37.402 264.224 44.8089 272.843 44.8089Z" fill="#2B082C"/>
<path d="M234.256 44.315L222.943 16.887C221.911 14.4181 221.148 13.9243 219.532 13.4754C218.858 13.2958 218.14 13.2958 217.781 13.2958C217.377 13.2958 217.242 13.1611 217.242 12.8918C217.242 12.5327 217.736 12.4878 218.409 12.4878C220.789 12.4878 223.347 12.6225 224.918 12.6225C226.041 12.6225 228.195 12.4878 230.44 12.4878C230.979 12.4878 231.472 12.5776 231.472 12.8918C231.472 13.206 231.203 13.2958 230.799 13.2958C230.081 13.2958 229.407 13.3407 229.048 13.6101C228.734 13.8345 228.599 14.1487 228.599 14.5527C228.599 15.1363 229.003 16.3933 229.632 18.0093L237.353 38.3895H237.533C239.463 33.4516 245.299 18.9969 246.376 16.0341C246.6 15.4506 246.78 14.7772 246.78 14.3732C246.78 14.0141 246.6 13.6549 246.196 13.5203C245.658 13.3407 244.984 13.2958 244.401 13.2958C243.997 13.2958 243.638 13.2509 243.638 12.9367C243.638 12.5776 244.042 12.4878 244.895 12.4878C247.139 12.4878 249.025 12.6225 249.608 12.6225C250.371 12.6225 252.481 12.4878 253.828 12.4878C254.411 12.4878 254.771 12.5776 254.771 12.8918C254.771 13.206 254.501 13.2958 254.052 13.2958C253.603 13.2958 252.661 13.2958 251.853 13.8345C251.269 14.2385 250.596 15.0017 249.384 17.8746C247.633 22.0943 246.421 24.5184 243.997 30.0399C241.124 36.5939 239.014 41.487 238.026 43.7315C236.859 46.3351 236.59 47.0534 235.961 47.0534C235.378 47.0534 235.109 46.4249 234.256 44.315Z" fill="#2B082C"/>
<path d="M186.872 33.4067V25.506C186.872 18.6827 186.872 17.4257 186.782 15.9892C186.692 14.463 186.333 13.7447 184.852 13.4305C184.493 13.3407 183.729 13.2958 183.101 13.2958C182.607 13.2958 182.338 13.206 182.338 12.8918C182.338 12.5776 182.652 12.4878 183.325 12.4878C185.705 12.4878 188.533 12.6225 189.79 12.6225C191.181 12.6225 194.009 12.4878 196.703 12.4878C202.314 12.4878 209.811 12.4878 214.704 17.6053C216.948 19.9396 219.058 23.6655 219.058 29.0074C219.058 34.6636 216.679 38.9731 214.165 41.5318C212.1 43.6417 207.432 46.8289 199.127 46.8289C197.511 46.8289 195.67 46.6942 193.964 46.5596C192.259 46.4249 190.687 46.2902 189.565 46.2902C189.071 46.2902 188.084 46.2902 187.006 46.3351C185.974 46.3351 184.807 46.4249 183.909 46.4249C183.325 46.4249 183.011 46.2902 183.011 45.976C183.011 45.7515 183.191 45.6169 183.729 45.6169C184.403 45.6169 184.942 45.5271 185.346 45.4373C186.243 45.2577 186.468 44.2702 186.647 42.9683C186.872 41.0829 186.872 37.5366 186.872 33.4067ZM192.483 24.7877V30.4439C192.483 35.2023 192.528 38.6589 192.573 39.5118C192.618 40.634 192.708 42.4297 193.067 42.9234C193.65 43.7764 195.401 44.7191 198.947 44.7191C203.526 44.7191 206.579 43.8213 209.272 41.487C212.145 39.018 213.043 34.933 213.043 30.3093C213.043 24.6082 210.664 20.9272 208.733 19.0867C204.603 15.1363 199.486 14.5976 195.985 14.5976C195.087 14.5976 193.426 14.7323 193.067 14.9119C192.663 15.0914 192.528 15.3159 192.528 15.8097C192.483 17.3359 192.483 21.2414 192.483 24.7877Z" fill="#2B082C"/>
<path d="M169.041 34.7083H159.031C158.806 34.7083 158.716 34.7981 158.627 35.0674L156.203 41.4867C155.754 42.609 155.529 43.6864 155.529 44.2251C155.529 45.0331 155.933 45.6167 157.325 45.6167H157.998C158.537 45.6167 158.671 45.7064 158.671 45.9758C158.671 46.3349 158.402 46.4247 157.908 46.4247C156.472 46.4247 154.542 46.29 153.15 46.29C152.656 46.29 150.187 46.4247 147.853 46.4247C147.269 46.4247 147 46.3349 147 45.9758C147 45.7064 147.18 45.6167 147.539 45.6167C147.943 45.6167 148.571 45.5718 148.93 45.5269C150.995 45.2575 151.848 43.7313 152.746 41.4867L164.013 13.2956C164.552 11.9938 164.821 11.5 165.27 11.5C165.674 11.5 165.944 11.904 166.393 12.9365C167.47 15.4055 174.652 33.7207 177.525 40.544C179.231 44.5842 180.533 45.2126 181.476 45.4371C182.149 45.5718 182.822 45.6167 183.361 45.6167C183.72 45.6167 183.945 45.6615 183.945 45.9758C183.945 46.3349 183.541 46.4247 181.88 46.4247C180.264 46.4247 176.987 46.4247 173.396 46.3349C172.587 46.29 172.049 46.29 172.049 45.9758C172.049 45.7064 172.228 45.6167 172.677 45.5718C172.992 45.482 173.306 45.078 173.081 44.5393L169.49 35.0225C169.4 34.7981 169.266 34.7083 169.041 34.7083ZM159.928 32.4638H168.188C168.413 32.4638 168.458 32.3291 168.413 32.1944L164.373 21.1065C164.328 20.927 164.283 20.7025 164.148 20.7025C164.013 20.7025 163.924 20.927 163.879 21.1065L159.749 32.1496C159.704 32.3291 159.749 32.4638 159.928 32.4638Z" fill="#2B082C"/>
<path d="M110.802 99.3316L59.7471 128.808V39.4765L110.802 10V99.3316Z" fill="#861888"/>
<path d="M60.3637 39.3661L9.5 10V68.7323L60.3637 39.3661Z" fill="#861888"/>
<path d="M9.5 98.9743V69L60 99.5V129L9.5 98.9743Z" fill="#861888"/>
<path d="M116.048 20.7002C116.048 17.3151 116.046 14.8662 115.889 12.9404C115.733 11.0325 115.431 9.77007 114.903 8.7334C113.897 6.75775 112.29 5.15121 110.314 4.14453C109.278 3.61627 108.015 3.31411 106.106 3.1582C104.181 3.0009 101.732 3 98.3477 3H20.7002C17.3152 3 14.8662 3.00086 12.9405 3.1582C11.0324 3.31411 9.77015 3.61634 8.73344 4.14453C6.75774 5.1512 5.15124 6.7577 4.14457 8.7334C3.61639 9.77011 3.31415 11.0324 3.15824 12.9404C3.0009 14.8662 3.00004 17.3151 3.00004 20.7002V91.5781C3.00004 95.6592 3.01756 97.369 3.50199 98.8799C3.94576 100.264 4.67113 101.541 5.63383 102.63C6.6849 103.819 8.14631 104.706 11.6543 106.792L50.4776 129.876C54.1367 132.052 55.6793 132.947 57.2881 133.298C58.7613 133.619 60.2866 133.619 61.7598 133.298C63.3684 132.947 64.9106 132.051 68.5694 129.876L107.394 106.792C110.901 104.706 112.362 103.818 113.413 102.63C114.376 101.541 115.102 100.264 115.546 98.8799C116.03 97.3691 116.048 95.6591 116.048 91.5781V20.7002ZM119.048 91.5781C119.048 95.46 119.064 97.7323 118.402 99.7959C117.832 101.575 116.898 103.217 115.66 104.617C114.225 106.24 112.263 107.387 108.927 109.371L70.1026 132.455C66.6232 134.524 64.5962 135.751 62.3985 136.229C60.5044 136.642 58.5435 136.642 56.6495 136.229C54.4516 135.751 52.424 134.524 48.9444 132.455L10.1211 109.371C6.78443 107.387 4.82237 106.241 3.38676 104.617C2.14899 103.217 1.21514 101.575 0.644572 99.7959C-0.0170404 97.7323 4.11816e-05 95.4599 4.11816e-05 91.5781V20.7002C4.11816e-05 17.3646 -0.000651896 14.7726 0.168986 12.6963C0.340056 10.6025 0.692062 8.90126 1.47172 7.37109C2.76599 4.83101 4.83105 2.76595 7.37113 1.47168C8.9013 0.692021 10.6026 0.340015 12.6963 0.168945C14.7726 -0.000693038 17.3647 4.60988e-08 20.7002 4.60988e-08H98.3477C101.683 -1.24942e-08 104.275 -0.000688776 106.352 0.168945C108.445 0.340029 110.147 0.692076 111.677 1.47168C114.217 2.76599 116.282 4.83107 117.576 7.37109C118.356 8.90125 118.708 10.6025 118.879 12.6963C119.049 14.7726 119.048 17.3646 119.048 20.7002V91.5781Z" fill="#861888"/>
</svg>
