<svg width="586" height="137" viewBox="0 0 586 137" fill="none" xmlns="http://www.w3.org/2000/svg">
<path d="M110.802 99.3316L59.7471 128.808V39.4765L110.802 10V99.3316Z" fill="#DB9D00"/>
<path d="M60.3637 39.3661L9.5 10V68.7323L60.3637 39.3661Z" fill="#BA8500"/>
<path d="M9.5 98.9743V69L60 99.5V129L9.5 98.9743Z" fill="#BA8500"/>
<path d="M116.048 20.7002C116.048 17.3151 116.046 14.8662 115.889 12.9404C115.733 11.0325 115.431 9.77007 114.903 8.7334C113.897 6.75775 112.29 5.15121 110.314 4.14453C109.278 3.61627 108.015 3.31411 106.106 3.1582C104.181 3.0009 101.732 3 98.3477 3H20.7002C17.3152 3 14.8662 3.00086 12.9405 3.1582C11.0324 3.31411 9.77015 3.61634 8.73344 4.14453C6.75774 5.1512 5.15124 6.7577 4.14457 8.7334C3.61639 9.77011 3.31415 11.0324 3.15824 12.9404C3.0009 14.8662 3.00004 17.3151 3.00004 20.7002V91.5781C3.00004 95.6592 3.01756 97.369 3.50199 98.8799C3.94576 100.264 4.67113 101.541 5.63383 102.63C6.6849 103.819 8.14631 104.706 11.6543 106.792L50.4776 129.876C54.1367 132.052 55.6793 132.947 57.2881 133.298C58.7613 133.619 60.2866 133.619 61.7598 133.298C63.3684 132.947 64.9106 132.051 68.5694 129.876L107.394 106.792C110.901 104.706 112.362 103.818 113.413 102.63C114.376 101.541 115.102 100.264 115.546 98.8799C116.03 97.3691 116.048 95.6591 116.048 91.5781V20.7002ZM119.048 91.5781C119.048 95.46 119.064 97.7323 118.402 99.7959C117.832 101.575 116.898 103.217 115.66 104.617C114.225 106.24 112.263 107.387 108.927 109.371L70.1026 132.455C66.6232 134.524 64.5962 135.751 62.3985 136.229C60.5044 136.642 58.5435 136.642 56.6495 136.229C54.4516 135.751 52.424 134.524 48.9444 132.455L10.1211 109.371C6.78443 107.387 4.82237 106.241 3.38676 104.617C2.14899 103.217 1.21514 101.575 0.644572 99.7959C-0.0170404 97.7323 4.11816e-05 95.4599 4.11816e-05 91.5781V20.7002C4.11816e-05 17.3646 -0.000651896 14.7726 0.168986 12.6963C0.340056 10.6025 0.692062 8.90126 1.47172 7.37109C2.76599 4.83101 4.83105 2.76595 7.37113 1.47168C8.9013 0.692021 10.6026 0.340015 12.6963 0.168945C14.7726 -0.000693038 17.3647 4.60988e-08 20.7002 4.60988e-08H98.3477C101.683 -1.24942e-08 104.275 -0.000688776 106.352 0.168945C108.445 0.340029 110.147 0.692076 111.677 1.47168C114.217 2.76599 116.282 4.83107 117.576 7.37109C118.356 8.90125 118.708 10.6025 118.879 12.6963C119.049 14.7726 119.048 17.3646 119.048 20.7002V91.5781Z" fill="#BA8500"/>
<path d="M565.91 97.445H552.566C552.267 97.445 552.147 97.5647 552.028 97.9237L548.797 106.48C548.198 107.976 547.899 109.412 547.899 110.13C547.899 111.207 548.438 111.985 550.293 111.985H551.19C551.908 111.985 552.088 112.105 552.088 112.464C552.088 112.943 551.729 113.062 551.07 113.062C549.156 113.062 546.583 112.883 544.728 112.883C544.07 112.883 540.779 113.062 537.667 113.062C536.889 113.062 536.53 112.943 536.53 112.464C536.53 112.105 536.77 111.985 537.248 111.985C537.787 111.985 538.625 111.925 539.103 111.866C541.856 111.506 542.993 109.472 544.189 106.48L559.208 68.9032C559.926 67.168 560.285 66.5098 560.884 66.5098C561.422 66.5098 561.781 67.0483 562.379 68.4245C563.816 71.7155 573.389 96.1286 577.219 105.224C579.493 110.609 581.228 111.447 582.484 111.746C583.382 111.925 584.279 111.985 584.997 111.985C585.476 111.985 585.775 112.045 585.775 112.464C585.775 112.943 585.237 113.062 583.023 113.062C580.869 113.062 576.501 113.062 571.714 112.943C570.637 112.883 569.919 112.883 569.919 112.464C569.919 112.105 570.158 111.985 570.756 111.925C571.175 111.806 571.594 111.267 571.295 110.549L566.508 97.8639C566.388 97.5647 566.209 97.445 565.91 97.445ZM553.763 94.4532H564.773C565.072 94.4532 565.132 94.2737 565.072 94.0942L559.687 79.3147C559.627 79.0753 559.567 78.7762 559.388 78.7762C559.208 78.7762 559.088 79.0753 559.029 79.3147L553.524 94.0344C553.464 94.2737 553.524 94.4532 553.763 94.4532Z" fill="#2D2E39"/>
<path d="M484.671 107.079L490.594 68.0655C490.774 67.0483 491.133 66.5098 491.612 66.5098C492.09 66.5098 492.449 66.8089 493.227 68.3647L509.562 102.112L525.838 67.9458C526.316 66.9885 526.616 66.5098 527.154 66.5098C527.693 66.5098 528.052 67.1081 528.231 68.3647L533.676 105.343C534.215 109.113 534.813 110.848 536.608 111.387C538.343 111.925 539.54 111.985 540.318 111.985C540.857 111.985 541.275 112.045 541.275 112.404C541.275 112.883 540.557 113.062 539.72 113.062C538.224 113.062 529.966 112.883 527.573 112.703C526.197 112.584 525.838 112.404 525.838 112.045C525.838 111.746 526.077 111.566 526.496 111.387C526.855 111.267 527.034 110.489 526.795 108.814L523.205 82.486H522.966L509.921 109.652C508.545 112.464 508.246 113.002 507.707 113.002C507.169 113.002 506.571 111.806 505.613 110.011C504.177 107.258 499.45 98.1032 498.732 96.4278C498.193 95.1712 494.603 87.6319 492.509 83.1442H492.27L489.158 106.959C489.039 108.036 488.979 108.814 488.979 109.771C488.979 110.908 489.757 111.447 490.774 111.686C491.851 111.925 492.689 111.985 493.287 111.985C493.766 111.985 494.184 112.105 494.184 112.404C494.184 112.943 493.646 113.062 492.748 113.062C490.235 113.062 487.543 112.883 486.466 112.883C485.329 112.883 482.457 113.062 480.542 113.062C479.944 113.062 479.465 112.943 479.465 112.404C479.465 112.105 479.824 111.985 480.422 111.985C480.901 111.985 481.32 111.985 482.217 111.806C483.893 111.447 484.371 109.113 484.671 107.079Z" fill="#2D2E39"/>
<path d="M444.408 95.7098V85.1786C444.408 76.0835 444.408 74.4081 444.288 72.4934C444.168 70.459 443.69 69.5016 441.715 69.0827C441.236 68.9631 440.219 68.9032 439.381 68.9032C438.723 68.9032 438.364 68.7835 438.364 68.3647C438.364 67.9458 438.783 67.8262 439.681 67.8262C442.852 67.8262 446.622 68.0057 447.878 68.0057C449.913 68.0057 454.46 67.8262 456.315 67.8262C460.085 67.8262 464.094 68.1852 467.325 70.3991C469 71.536 471.394 74.5876 471.394 78.5967C471.394 83.0245 469.539 87.0934 463.495 91.9999C468.821 98.7016 472.949 104.027 476.48 107.737C479.831 111.207 482.284 111.626 483.181 111.806C483.84 111.925 484.378 111.985 484.857 111.985C485.336 111.985 485.575 112.165 485.575 112.464C485.575 112.943 485.156 113.062 484.438 113.062H478.754C475.403 113.062 473.907 112.763 472.351 111.925C469.778 110.549 467.504 107.737 464.154 103.129C461.76 99.8385 459.008 95.7696 458.23 94.8721C457.931 94.5131 457.572 94.4532 457.153 94.4532L451.947 94.3336C451.648 94.3336 451.468 94.4532 451.468 94.8122V95.6499C451.468 101.215 451.468 105.942 451.768 108.455C451.947 110.19 452.306 111.507 454.101 111.746C454.999 111.866 456.315 111.985 457.033 111.985C457.512 111.985 457.751 112.165 457.751 112.464C457.751 112.883 457.332 113.062 456.554 113.062C453.084 113.062 448.656 112.883 447.759 112.883C446.622 112.883 442.852 113.062 440.459 113.062C439.681 113.062 439.262 112.883 439.262 112.464C439.262 112.165 439.501 111.985 440.219 111.985C441.117 111.985 441.835 111.866 442.373 111.746C443.57 111.507 443.869 110.19 444.109 108.455C444.408 105.942 444.408 101.215 444.408 95.7098ZM451.468 71.7155V89.9057C451.468 90.5639 451.588 90.8032 452.007 90.9827C453.263 91.4016 455.058 91.5811 456.554 91.5811C458.948 91.5811 459.726 91.3417 460.803 90.5639C462.598 89.2475 464.333 86.495 464.333 81.5885C464.333 73.0917 458.709 70.6385 455.178 70.6385C453.682 70.6385 452.605 70.6983 452.007 70.8778C451.588 70.9975 451.468 71.2368 451.468 71.7155Z" fill="#2D2E39"/>
<path d="M419.445 97.445H406.101C405.802 97.445 405.683 97.5647 405.563 97.9237L402.332 106.48C401.733 107.976 401.434 109.412 401.434 110.13C401.434 111.207 401.973 111.985 403.828 111.985H404.725C405.443 111.985 405.623 112.105 405.623 112.464C405.623 112.943 405.264 113.062 404.606 113.062C402.691 113.062 400.118 112.883 398.263 112.883C397.605 112.883 394.314 113.062 391.202 113.062C390.424 113.062 390.065 112.943 390.065 112.464C390.065 112.105 390.305 111.985 390.783 111.985C391.322 111.985 392.16 111.925 392.638 111.866C395.391 111.506 396.528 109.472 397.724 106.48L412.743 68.9032C413.461 67.168 413.82 66.5098 414.419 66.5098C414.957 66.5098 415.316 67.0483 415.915 68.4245C417.351 71.7155 426.924 96.1286 430.754 105.224C433.028 110.609 434.763 111.447 436.019 111.746C436.917 111.925 437.815 111.985 438.533 111.985C439.011 111.985 439.31 112.045 439.31 112.464C439.31 112.943 438.772 113.062 436.558 113.062C434.404 113.062 430.036 113.062 425.249 112.943C424.172 112.883 423.454 112.883 423.454 112.464C423.454 112.105 423.693 111.985 424.292 111.925C424.71 111.806 425.129 111.267 424.83 110.549L420.043 97.8639C419.924 97.5647 419.744 97.445 419.445 97.445ZM407.298 94.4532H418.308C418.607 94.4532 418.667 94.2737 418.607 94.0942L413.222 79.3147C413.162 79.0753 413.102 78.7762 412.923 78.7762C412.743 78.7762 412.624 79.0753 412.564 79.3147L407.059 94.0344C406.999 94.2737 407.059 94.4532 407.298 94.4532Z" fill="#2D2E39"/>
<path d="M354.6 86.854H377.457C377.637 86.854 377.816 86.7344 377.816 86.4352V85.1786C377.816 76.0835 377.816 74.4081 377.696 72.4934C377.577 70.459 377.098 69.5016 375.123 69.0827C374.645 68.9631 373.628 68.9032 372.79 68.9032C372.132 68.9032 371.773 68.7835 371.773 68.3647C371.773 67.9458 372.192 67.8262 373.029 67.8262C376.26 67.8262 380.03 68.0057 381.646 68.0057C383.082 68.0057 386.851 67.8262 389.185 67.8262C390.023 67.8262 390.441 67.9458 390.441 68.3647C390.441 68.7835 390.082 68.9032 389.364 68.9032C388.886 68.9032 388.347 68.9631 387.629 69.0827C386.014 69.3819 385.535 70.3991 385.415 72.4934C385.296 74.4081 385.296 76.0835 385.296 85.1786V95.7098C385.296 101.215 385.296 105.942 385.595 108.515C385.774 110.19 386.133 111.507 387.928 111.746C388.766 111.866 390.082 111.985 390.98 111.985C391.638 111.985 391.937 112.165 391.937 112.464C391.937 112.883 391.459 113.062 390.741 113.062C386.851 113.062 383.082 112.883 381.406 112.883C380.03 112.883 376.26 113.062 373.927 113.062C373.089 113.062 372.67 112.883 372.67 112.464C372.67 112.165 372.91 111.985 373.628 111.985C374.525 111.985 375.243 111.866 375.782 111.746C376.978 111.507 377.278 110.19 377.517 108.455C377.816 105.942 377.816 101.215 377.816 95.7098V90.4442C377.816 90.2049 377.637 90.0852 377.457 90.0852H354.6C354.42 90.0852 354.241 90.145 354.241 90.4442V95.7098C354.241 101.215 354.241 105.942 354.54 108.515C354.719 110.19 355.078 111.507 356.873 111.746C357.711 111.866 359.028 111.985 359.925 111.985C360.583 111.985 360.883 112.165 360.883 112.464C360.883 112.883 360.404 113.062 359.686 113.062C355.796 113.062 352.027 112.883 350.351 112.883C348.975 112.883 345.205 113.062 342.812 113.062C342.034 113.062 341.615 112.883 341.615 112.464C341.615 112.165 341.855 111.985 342.573 111.985C343.47 111.985 344.188 111.866 344.727 111.746C345.924 111.507 346.223 110.19 346.462 108.455C346.761 105.942 346.761 101.215 346.761 95.7098V85.1786C346.761 76.0835 346.761 74.4081 346.642 72.4934C346.522 70.459 346.043 69.5016 344.069 69.0827C343.59 68.9631 342.573 68.9032 341.735 68.9032C341.077 68.9032 340.718 68.7835 340.718 68.3647C340.718 67.9458 341.137 67.8262 341.974 67.8262C345.205 67.8262 348.975 68.0057 350.591 68.0057C352.027 68.0057 355.796 67.8262 358.13 67.8262C358.968 67.8262 359.387 67.9458 359.387 68.3647C359.387 68.7835 359.028 68.9032 358.31 68.9032C357.831 68.9032 357.292 68.9631 356.574 69.0827C354.959 69.3819 354.48 70.3991 354.36 72.4934C354.241 74.4081 354.241 76.0835 354.241 85.1786V86.4352C354.241 86.7344 354.42 86.854 354.6 86.854Z" fill="#2D2E39"/>
<path d="M318.578 113.9C315.108 113.9 312.415 113.482 309.842 112.345C308.885 111.926 308.705 111.627 308.705 110.31C308.705 107.019 308.944 103.429 309.004 102.472C309.064 101.574 309.244 100.916 309.722 100.916C310.261 100.916 310.321 101.455 310.321 101.933C310.321 102.711 310.56 103.968 310.859 104.985C312.176 109.413 315.706 111.028 319.416 111.028C324.801 111.028 327.434 107.378 327.434 104.207C327.434 101.275 326.536 98.5226 321.57 94.6333L318.817 92.4792C312.235 87.3333 309.962 83.1448 309.962 78.298C309.962 71.7161 315.467 66.989 323.784 66.989C327.673 66.989 330.186 67.5874 331.742 68.0062C332.28 68.1259 332.58 68.3054 332.58 68.7243C332.58 69.5021 332.34 71.2374 332.34 75.9046C332.34 77.221 332.161 77.6997 331.682 77.6997C331.263 77.6997 331.084 77.3407 331.084 76.6226C331.084 76.0841 330.785 74.2292 329.528 72.6734C328.63 71.5366 326.895 69.7415 323.006 69.7415C318.578 69.7415 315.885 72.3144 315.885 75.9046C315.885 78.657 317.262 80.7513 322.228 84.521L323.903 85.7775C331.144 91.2226 333.717 95.3513 333.717 101.036C333.717 104.506 332.4 108.635 328.092 111.447C325.1 113.362 321.749 113.9 318.578 113.9Z" fill="#2D2E39"/>
<path d="M271.427 97.445H258.084C257.785 97.445 257.665 97.5647 257.545 97.9237L254.314 106.48C253.716 107.976 253.417 109.412 253.417 110.13C253.417 111.207 253.955 111.985 255.81 111.985H256.708C257.426 111.985 257.605 112.105 257.605 112.464C257.605 112.943 257.246 113.062 256.588 113.062C254.673 113.062 252.1 112.883 250.245 112.883C249.587 112.883 246.296 113.062 243.185 113.062C242.407 113.062 242.048 112.943 242.048 112.464C242.048 112.105 242.287 111.985 242.766 111.985C243.304 111.985 244.142 111.925 244.621 111.866C247.373 111.506 248.51 109.472 249.707 106.48L264.726 68.9032C265.444 67.168 265.803 66.5098 266.401 66.5098C266.94 66.5098 267.299 67.0483 267.897 68.4245C269.333 71.7155 278.907 96.1286 282.736 105.224C285.01 110.609 286.745 111.447 288.002 111.746C288.899 111.925 289.797 111.985 290.515 111.985C290.994 111.985 291.293 112.045 291.293 112.464C291.293 112.943 290.754 113.062 288.54 113.062C286.386 113.062 282.018 113.062 277.231 112.943C276.154 112.883 275.436 112.883 275.436 112.464C275.436 112.105 275.676 111.985 276.274 111.925C276.693 111.806 277.112 111.267 276.813 110.549L272.026 97.8639C271.906 97.5647 271.727 97.445 271.427 97.445ZM259.281 94.4532H270.29C270.59 94.4532 270.649 94.2737 270.59 94.0942L265.204 79.3147C265.145 79.0753 265.085 78.7762 264.905 78.7762C264.726 78.7762 264.606 79.0753 264.546 79.3147L259.041 94.0344C258.981 94.2737 259.041 94.4532 259.281 94.4532Z" fill="#2D2E39"/>
<path d="M224.67 102.471V97.5647C224.67 94.3336 224.072 93.0172 223.294 91.2819C222.875 90.3245 214.857 77.1606 212.763 74.0491C211.267 71.8352 209.771 70.3393 208.634 69.6811C207.856 69.2622 206.839 68.9032 206.121 68.9032C205.642 68.9032 205.224 68.7835 205.224 68.3647C205.224 68.0057 205.642 67.8262 206.361 67.8262C207.438 67.8262 211.925 68.0057 213.9 68.0057C215.156 68.0057 217.61 67.8262 220.302 67.8262C220.901 67.8262 221.2 68.0057 221.2 68.3647C221.2 68.7237 220.781 68.7835 219.883 69.0229C219.345 69.1426 219.046 69.6213 219.046 70.0999C219.046 70.5786 219.345 71.2967 219.764 72.1344C220.601 73.9295 228.979 88.3499 229.936 90.0254C230.534 88.5893 238.074 75.4254 238.911 73.5704C239.51 72.254 239.749 71.2368 239.749 70.459C239.749 69.8606 239.51 69.2024 238.492 68.9631C237.954 68.8434 237.415 68.7237 237.415 68.3647C237.415 67.9458 237.715 67.8262 238.433 67.8262C240.407 67.8262 242.322 68.0057 244.057 68.0057C245.374 68.0057 249.323 67.8262 250.46 67.8262C251.118 67.8262 251.537 67.9458 251.537 68.3049C251.537 68.7237 251.058 68.9032 250.4 68.9032C249.801 68.9032 248.665 69.1426 247.767 69.6213C246.51 70.2196 245.852 70.9376 244.536 72.5532C242.561 74.9467 234.184 89.0081 233.107 91.5811C232.21 93.7352 232.21 95.5901 232.21 97.5647V102.471C232.21 103.429 232.21 105.942 232.389 108.455C232.509 110.19 233.047 111.507 234.842 111.746C235.68 111.866 236.997 111.985 237.834 111.985C238.492 111.985 238.792 112.165 238.792 112.464C238.792 112.883 238.313 113.062 237.535 113.062C233.765 113.062 229.996 112.883 228.38 112.883C226.884 112.883 223.115 113.062 220.901 113.062C220.063 113.062 219.584 112.943 219.584 112.464C219.584 112.165 219.883 111.985 220.542 111.985C221.379 111.985 222.097 111.866 222.636 111.746C223.833 111.507 224.371 110.19 224.491 108.455C224.67 105.942 224.67 103.429 224.67 102.471Z" fill="#2D2E39"/>
<path d="M195.11 97.445H181.767C181.467 97.445 181.348 97.5647 181.228 97.9237L177.997 106.48C177.398 107.976 177.099 109.412 177.099 110.13C177.099 111.207 177.638 111.985 179.493 111.985H180.39C181.108 111.985 181.288 112.105 181.288 112.464C181.288 112.943 180.929 113.062 180.271 113.062C178.356 113.062 175.783 112.883 173.928 112.883C173.27 112.883 169.979 113.062 166.867 113.062C166.089 113.062 165.73 112.943 165.73 112.464C165.73 112.105 165.97 111.985 166.449 111.985C166.987 111.985 167.825 111.925 168.303 111.866C171.056 111.506 172.193 109.472 173.389 106.48L188.408 68.9032C189.126 67.168 189.485 66.5098 190.084 66.5098C190.622 66.5098 190.981 67.0483 191.58 68.4245C193.016 71.7155 202.589 96.1286 206.419 105.224C208.693 110.609 210.428 111.447 211.685 111.746C212.582 111.925 213.48 111.985 214.198 111.985C214.676 111.985 214.976 112.045 214.976 112.464C214.976 112.943 214.437 113.062 212.223 113.062C210.069 113.062 205.701 113.062 200.914 112.943C199.837 112.883 199.119 112.883 199.119 112.464C199.119 112.105 199.358 111.985 199.957 111.925C200.376 111.806 200.794 111.267 200.495 110.549L195.708 97.8639C195.589 97.5647 195.409 97.445 195.11 97.445ZM182.963 94.4532H193.973C194.272 94.4532 194.332 94.2737 194.272 94.0942L188.887 79.3147C188.827 79.0753 188.767 78.7762 188.588 78.7762C188.408 78.7762 188.289 79.0753 188.229 79.3147L182.724 94.0344C182.664 94.2737 182.724 94.4532 182.963 94.4532Z" fill="#2D2E39"/>
<path d="M155.676 102.352V85.1786C155.676 76.0835 155.676 74.4081 155.557 72.4934C155.437 70.459 154.958 69.5016 152.984 69.0827C152.505 68.9631 151.488 68.9032 150.65 68.9032C149.992 68.9032 149.633 68.7835 149.633 68.3647C149.633 67.9458 150.052 67.8262 150.949 67.8262C154.12 67.8262 157.89 68.0057 159.446 68.0057C160.882 68.0057 164.652 67.8262 166.985 67.8262C167.823 67.8262 168.242 67.9458 168.242 68.3647C168.242 68.7835 167.883 68.9032 167.165 68.9032C166.507 68.9032 166.148 68.9631 165.429 69.0827C163.814 69.3819 163.335 70.3991 163.216 72.4934C163.096 74.4081 163.096 76.0835 163.096 85.1786V96.2483C163.096 98.8213 163.275 101.693 163.275 104.685C163.275 108.096 163.036 111.925 161.839 115.276C160.583 118.926 157.411 123.055 151.667 126.585C150.889 127.064 149.932 127.543 148.675 128.141C148.257 128.38 147.778 128.5 147.479 128.5C147.239 128.5 147 128.32 147 128.021C147 127.722 147.299 127.483 148.316 126.944C149.094 126.525 149.992 125.867 151.189 124.67C155.736 120.063 155.676 114.079 155.676 102.352Z" fill="#2D2E39"/>
<path d="M408.831 35.1229V26.6033C408.831 19.2454 408.831 17.89 408.734 16.341C408.637 14.6951 408.25 13.9206 406.652 13.5818C406.265 13.485 405.442 13.4366 404.764 13.4366C404.232 13.4366 403.941 13.3397 403.941 13.0009C403.941 12.662 404.28 12.5652 405.006 12.5652C406.313 12.5652 407.717 12.6136 408.927 12.6136C410.186 12.662 411.299 12.7105 411.977 12.7105C413.526 12.7105 423.159 12.7105 424.079 12.662C424.998 12.5652 425.773 12.4684 426.16 12.3716C426.402 12.3232 426.693 12.178 426.935 12.178C427.177 12.178 427.225 12.3716 427.225 12.6136C427.225 12.9525 426.983 13.5334 426.838 15.7601C426.79 16.2442 426.693 18.3741 426.596 18.955C426.548 19.197 426.451 19.4874 426.112 19.4874C425.773 19.4874 425.676 19.2454 425.676 18.8097C425.676 18.4709 425.628 17.648 425.386 17.0671C425.047 16.1958 424.563 15.6149 422.142 15.3244C421.32 15.2276 416.237 15.1308 415.269 15.1308C415.027 15.1308 414.93 15.276 414.93 15.6149V27.8619C414.93 28.2007 414.978 28.3943 415.269 28.3943C416.334 28.3943 421.9 28.3943 423.014 28.2975C424.176 28.2007 424.902 28.0555 425.337 27.5714C425.676 27.1842 425.87 26.9421 426.112 26.9421C426.305 26.9421 426.451 27.0389 426.451 27.3294C426.451 27.6198 426.257 28.3943 426.063 30.8631C426.015 31.8312 425.87 33.7675 425.87 34.1064C425.87 34.4936 425.87 35.0261 425.434 35.0261C425.095 35.0261 424.998 34.8325 424.998 34.5905C424.95 34.1064 424.95 33.4771 424.805 32.8478C424.563 31.8797 423.885 31.1535 422.094 30.9599C421.174 30.8631 416.382 30.8147 415.22 30.8147C414.978 30.8147 414.93 31.0083 414.93 31.2988V35.1229C414.93 36.7688 414.881 41.2222 414.93 42.626C415.027 45.9661 415.801 46.6922 420.739 46.6922C421.997 46.6922 424.03 46.6922 425.289 46.1113C426.548 45.5304 427.128 44.5139 427.467 42.5292C427.564 41.9967 427.661 41.8031 428 41.8031C428.387 41.8031 428.387 42.1904 428.387 42.6744C428.387 43.7878 428 47.0795 427.758 48.0476C427.419 49.3062 426.983 49.3062 425.144 49.3062C421.513 49.3062 418.851 49.2094 416.769 49.161C414.688 49.0642 413.187 49.0158 411.735 49.0158C411.202 49.0158 410.137 49.0158 408.976 49.0642C407.862 49.0642 406.604 49.161 405.636 49.161C405.006 49.161 404.668 49.0158 404.668 48.6769C404.668 48.4349 404.861 48.2897 405.442 48.2897C406.168 48.2897 406.749 48.1928 407.185 48.096C408.153 47.9024 408.395 46.8374 408.588 45.4336C408.831 43.4005 408.831 39.5764 408.831 35.1229Z" fill="#2D2E39"/>
<path d="M382.836 35.1228V15.2759L375.623 15.4696C372.816 15.5664 371.654 15.8084 370.928 16.8734C370.444 17.5995 370.202 18.1804 370.105 18.5676C370.008 18.9549 369.863 19.1485 369.572 19.1485C369.234 19.1485 369.137 18.9065 369.137 18.374C369.137 17.5995 370.056 13.1944 370.153 12.8072C370.298 12.1779 370.444 11.8875 370.734 11.8875C371.121 11.8875 371.605 12.3715 372.816 12.4683C374.219 12.6136 376.059 12.7104 377.656 12.7104H396.826C398.375 12.7104 399.44 12.5651 400.166 12.4683C400.892 12.3231 401.279 12.2263 401.473 12.2263C401.811 12.2263 401.86 12.5167 401.86 13.2428C401.86 14.2594 401.715 17.5995 401.715 18.8581C401.666 19.3421 401.569 19.6326 401.279 19.6326C400.892 19.6326 400.795 19.3905 400.747 18.6644L400.698 18.132C400.601 16.8734 399.294 15.518 394.986 15.4212L388.887 15.2759V35.1228C388.887 39.5763 388.887 43.4004 389.129 45.482C389.274 46.8374 389.565 47.9023 391.017 48.0959C391.694 48.1927 392.759 48.2896 393.485 48.2896C394.018 48.2896 394.26 48.4348 394.26 48.6768C394.26 49.0157 393.873 49.1609 393.34 49.1609C390.145 49.1609 387.096 49.0157 385.74 49.0157C384.627 49.0157 381.577 49.1609 379.641 49.1609C379.012 49.1609 378.673 49.0157 378.673 48.6768C378.673 48.4348 378.867 48.2896 379.447 48.2896C380.174 48.2896 380.754 48.1927 381.19 48.0959C382.158 47.9023 382.449 46.8374 382.594 45.4335C382.836 43.4004 382.836 39.5763 382.836 35.1228Z" fill="#2D2E39"/>
<path d="M360.34 36.5265H349.545C349.303 36.5265 349.207 36.6233 349.11 36.9137L346.496 43.8359C346.012 45.0461 345.77 46.2079 345.77 46.7888C345.77 47.6601 346.205 48.2894 347.706 48.2894H348.432C349.013 48.2894 349.158 48.3862 349.158 48.6766C349.158 49.0639 348.868 49.1607 348.335 49.1607C346.786 49.1607 344.705 49.0155 343.204 49.0155C342.672 49.0155 340.009 49.1607 337.492 49.1607C336.863 49.1607 336.572 49.0639 336.572 48.6766C336.572 48.3862 336.766 48.2894 337.153 48.2894C337.589 48.2894 338.267 48.241 338.654 48.1926C340.88 47.9021 341.8 46.2563 342.768 43.8359L354.919 13.4363C355.499 12.0325 355.79 11.5 356.274 11.5C356.71 11.5 357 11.9357 357.484 13.049C358.646 15.7114 366.391 35.4615 369.489 42.8194C371.329 47.176 372.732 47.8537 373.749 48.0957C374.475 48.241 375.201 48.2894 375.782 48.2894C376.169 48.2894 376.411 48.3378 376.411 48.6766C376.411 49.0639 375.976 49.1607 374.185 49.1607C372.442 49.1607 368.908 49.1607 365.036 49.0639C364.164 49.0155 363.583 49.0155 363.583 48.6766C363.583 48.3862 363.777 48.2894 364.261 48.241C364.6 48.1441 364.939 47.7085 364.697 47.1276L360.824 36.8653C360.727 36.6233 360.582 36.5265 360.34 36.5265ZM350.514 34.1061H359.42C359.662 34.1061 359.711 33.9609 359.662 33.8157L355.306 21.8591C355.257 21.6655 355.209 21.4234 355.064 21.4234C354.919 21.4234 354.822 21.6655 354.773 21.8591L350.32 33.7672C350.271 33.9609 350.32 34.1061 350.514 34.1061Z" fill="#2D2E39"/>
<path d="M326.692 49.8386C320.06 49.8386 314.493 48.3864 310.088 44.5622C305.345 40.3992 304.086 34.9776 304.086 30.2821C304.086 26.9905 305.102 21.2784 309.75 17.0186C313.235 13.8237 317.834 11.8875 325.046 11.8875C328.047 11.8875 329.838 12.0811 332.065 12.3715C333.905 12.6136 335.454 13.0492 336.906 13.1944C337.438 13.2428 337.632 13.4849 337.632 13.7753C337.632 14.1626 337.487 14.7435 337.39 16.4377C337.293 18.0351 337.342 20.6975 337.245 21.6657C337.196 22.3918 337.1 22.779 336.664 22.779C336.277 22.779 336.18 22.3918 336.18 21.7141C336.131 20.2135 335.502 18.5192 334.292 17.2606C332.695 15.5664 328.919 14.2594 324.465 14.2594C320.254 14.2594 317.495 15.3244 315.365 17.2606C311.831 20.5039 310.911 25.1026 310.911 29.7981C310.911 41.3189 319.673 47.031 326.16 47.031C330.468 47.031 333.082 46.5469 335.018 44.3202C335.841 43.4005 336.47 41.9966 336.664 41.1253C336.809 40.3508 336.906 40.1572 337.293 40.1572C337.632 40.1572 337.729 40.496 337.729 40.8833C337.729 41.4642 337.148 45.6756 336.664 47.3214C336.422 48.1443 336.228 48.3864 335.405 48.7252C333.469 49.4997 329.79 49.8386 326.692 49.8386Z" fill="#2D2E39"/>
<path d="M280.669 49.8386C266.776 49.8386 261.161 39.4311 261.161 30.863C261.161 22.5854 266.631 11.8875 281.153 11.8875C293.207 11.8875 300.71 18.9065 300.71 29.9917C300.71 41.0769 292.965 49.8386 280.669 49.8386ZM282.702 47.4182C286.091 47.4182 293.933 45.7724 293.933 31.7828C293.933 20.9396 287.688 14.211 279.749 14.211C274.183 14.211 267.841 17.309 267.841 29.3624C267.841 39.4311 273.408 47.4182 282.702 47.4182Z" fill="#2D2E39"/>
<path d="M241.091 46.8858L228.893 17.3091C227.779 14.6467 226.957 14.1142 225.214 13.6301C224.488 13.4365 223.713 13.4365 223.326 13.4365C222.89 13.4365 222.745 13.2913 222.745 13.0008C222.745 12.6136 223.278 12.5652 224.004 12.5652C226.569 12.5652 229.328 12.7104 231.023 12.7104C232.233 12.7104 234.556 12.5652 236.977 12.5652C237.558 12.5652 238.09 12.662 238.09 13.0008C238.09 13.3397 237.8 13.4365 237.364 13.4365C236.59 13.4365 235.863 13.4849 235.476 13.7754C235.137 14.0174 234.992 14.3562 234.992 14.7919C234.992 15.4212 235.428 16.7766 236.105 18.5193L244.431 40.4961H244.625C246.707 35.1713 253 19.5842 254.161 16.3893C254.403 15.7601 254.597 15.0339 254.597 14.5983C254.597 14.211 254.403 13.8238 253.968 13.6785C253.387 13.4849 252.661 13.4365 252.031 13.4365C251.596 13.4365 251.208 13.3881 251.208 13.0493C251.208 12.662 251.644 12.5652 252.564 12.5652C254.984 12.5652 257.017 12.7104 257.647 12.7104C258.47 12.7104 260.745 12.5652 262.197 12.5652C262.826 12.5652 263.213 12.662 263.213 13.0008C263.213 13.3397 262.923 13.4365 262.439 13.4365C261.955 13.4365 260.938 13.4365 260.067 14.0174C259.438 14.4531 258.712 15.276 257.405 18.374C255.517 22.9243 254.21 25.5383 251.596 31.4923C248.498 38.5598 246.223 43.8361 245.158 46.2565C243.899 49.0641 243.609 49.8386 242.931 49.8386C242.302 49.8386 242.011 49.1609 241.091 46.8858Z" fill="#2D2E39"/>
<path d="M189.996 35.1229V26.6032C189.996 19.2454 189.996 17.89 189.899 16.3409C189.802 14.6951 189.415 13.9206 187.817 13.5817C187.43 13.4849 186.607 13.4365 185.929 13.4365C185.397 13.4365 185.106 13.3397 185.106 13.0008C185.106 12.662 185.445 12.5652 186.171 12.5652C188.737 12.5652 191.787 12.7104 193.142 12.7104C194.643 12.7104 197.692 12.5652 200.597 12.5652C206.648 12.5652 214.732 12.5652 220.008 18.0836C222.428 20.6008 224.703 24.6185 224.703 30.379C224.703 36.4783 222.138 41.1254 219.427 43.8846C217.2 46.1597 212.166 49.5966 203.211 49.5966C201.468 49.5966 199.483 49.4514 197.644 49.3061C195.804 49.1609 194.11 49.0157 192.9 49.0157C192.368 49.0157 191.303 49.0157 190.141 49.0641C189.027 49.0641 187.769 49.1609 186.801 49.1609C186.171 49.1609 185.833 49.0157 185.833 48.6769C185.833 48.4348 186.026 48.2896 186.607 48.2896C187.333 48.2896 187.914 48.1928 188.35 48.096C189.318 47.9023 189.56 46.8374 189.754 45.4336C189.996 43.4005 189.996 39.5763 189.996 35.1229ZM196.046 25.8287V31.928C196.046 37.0592 196.095 40.7865 196.143 41.7062C196.192 42.9164 196.288 44.8527 196.676 45.3852C197.305 46.3049 199.193 47.3215 203.017 47.3215C207.955 47.3215 211.246 46.3533 214.151 43.8361C217.249 41.1738 218.217 36.7687 218.217 31.7828C218.217 25.6351 215.651 21.6657 213.57 19.681C209.116 15.4212 203.598 14.8403 199.822 14.8403C198.854 14.8403 197.063 14.9855 196.676 15.1792C196.24 15.3728 196.095 15.6148 196.095 16.1473C196.046 17.7931 196.046 22.0046 196.046 25.8287Z" fill="#2D2E39"/>
<path d="M170.768 36.5265H159.973C159.731 36.5265 159.634 36.6233 159.537 36.9137L156.923 43.8359C156.439 45.0461 156.197 46.2079 156.197 46.7888C156.197 47.6601 156.633 48.2894 158.134 48.2894H158.86C159.441 48.2894 159.586 48.3862 159.586 48.6766C159.586 49.0639 159.295 49.1607 158.763 49.1607C157.214 49.1607 155.132 49.0155 153.632 49.0155C153.099 49.0155 150.437 49.1607 147.92 49.1607C147.29 49.1607 147 49.0639 147 48.6766C147 48.3862 147.194 48.2894 147.581 48.2894C148.017 48.2894 148.694 48.241 149.082 48.1926C151.308 47.9021 152.228 46.2563 153.196 43.8359L165.346 13.4363C165.927 12.0325 166.218 11.5 166.702 11.5C167.137 11.5 167.428 11.9357 167.912 13.049C169.074 15.7114 176.819 35.4615 179.917 42.8194C181.756 47.176 183.16 47.8537 184.177 48.0957C184.903 48.241 185.629 48.2894 186.21 48.2894C186.597 48.2894 186.839 48.3378 186.839 48.6766C186.839 49.0639 186.403 49.1607 184.612 49.1607C182.87 49.1607 179.336 49.1607 175.463 49.0639C174.592 49.0155 174.011 49.0155 174.011 48.6766C174.011 48.3862 174.205 48.2894 174.689 48.241C175.028 48.1441 175.367 47.7085 175.125 47.1276L171.252 36.8653C171.155 36.6233 171.01 36.5265 170.768 36.5265ZM160.941 34.1061H169.848C170.09 34.1061 170.139 33.9609 170.09 33.8157L165.734 21.8591C165.685 21.6655 165.637 21.4234 165.491 21.4234C165.346 21.4234 165.249 21.6655 165.201 21.8591L160.748 33.7672C160.699 33.9609 160.748 34.1061 160.941 34.1061Z" fill="#2D2E39"/>
</svg>
