<svg width="454" height="119" viewBox="0 0 454 119" fill="none" xmlns="http://www.w3.org/2000/svg">
<path d="M438.878 80.6479H429.066C428.846 80.6479 428.758 80.7359 428.67 80.9999L426.294 87.2919C425.854 88.3919 425.634 89.4479 425.634 89.9759C425.634 90.7679 426.03 91.3399 427.394 91.3399H428.054C428.582 91.3399 428.714 91.4279 428.714 91.6919C428.714 92.0439 428.45 92.1319 427.966 92.1319C426.558 92.1319 424.666 91.9999 423.302 91.9999C422.818 91.9999 420.398 92.1319 418.11 92.1319C417.538 92.1319 417.274 92.0439 417.274 91.6919C417.274 91.4279 417.45 91.3399 417.802 91.3399C418.198 91.3399 418.814 91.2959 419.166 91.2519C421.19 90.9879 422.026 89.4919 422.906 87.2919L433.95 59.6599C434.478 58.3839 434.742 57.8999 435.182 57.8999C435.578 57.8999 435.842 58.2959 436.282 59.3079C437.338 61.7279 444.378 79.6799 447.194 86.3679C448.866 90.3279 450.142 90.9439 451.066 91.1639C451.726 91.2959 452.386 91.3399 452.914 91.3399C453.266 91.3399 453.486 91.3839 453.486 91.6919C453.486 92.0439 453.09 92.1319 451.462 92.1319C449.878 92.1319 446.666 92.1319 443.146 92.0439C442.354 91.9999 441.826 91.9999 441.826 91.6919C441.826 91.4279 442.002 91.3399 442.442 91.2959C442.75 91.2079 443.058 90.8119 442.838 90.2839L439.318 80.9559C439.23 80.7359 439.098 80.6479 438.878 80.6479ZM429.946 78.4479H438.042C438.262 78.4479 438.306 78.3159 438.262 78.1839L434.302 67.3159C434.258 67.1399 434.214 66.9199 434.082 66.9199C433.95 66.9199 433.862 67.1399 433.818 67.3159L429.77 78.1399C429.726 78.3159 429.77 78.4479 429.946 78.4479Z" fill="black"/>
<path d="M379.139 87.7319L383.495 59.0439C383.627 58.2959 383.891 57.8999 384.243 57.8999C384.595 57.8999 384.859 58.1199 385.431 59.2639L397.443 84.0799L409.411 58.9559C409.763 58.2519 409.983 57.8999 410.379 57.8999C410.775 57.8999 411.039 58.3399 411.171 59.2639L415.175 86.4559C415.571 89.2279 416.011 90.5039 417.331 90.8999C418.607 91.2959 419.487 91.3399 420.059 91.3399C420.455 91.3399 420.763 91.3839 420.763 91.6479C420.763 91.9999 420.235 92.1319 419.619 92.1319C418.519 92.1319 412.447 91.9999 410.687 91.8679C409.675 91.7799 409.411 91.6479 409.411 91.3839C409.411 91.1639 409.587 91.0319 409.895 90.8999C410.159 90.8119 410.291 90.2399 410.115 89.0079L407.475 69.6479H407.299L397.707 89.6239C396.695 91.6919 396.475 92.0879 396.079 92.0879C395.683 92.0879 395.243 91.2079 394.539 89.8879C393.483 87.8639 390.007 81.1319 389.479 79.8999C389.083 78.9759 386.443 73.4319 384.903 70.1319H384.727L382.439 87.6439C382.351 88.4359 382.307 89.0079 382.307 89.7119C382.307 90.5479 382.879 90.9439 383.627 91.1199C384.419 91.2959 385.035 91.3399 385.475 91.3399C385.827 91.3399 386.135 91.4279 386.135 91.6479C386.135 92.0439 385.739 92.1319 385.079 92.1319C383.231 92.1319 381.251 91.9999 380.459 91.9999C379.623 91.9999 377.511 92.1319 376.103 92.1319C375.663 92.1319 375.311 92.0439 375.311 91.6479C375.311 91.4279 375.575 91.3399 376.015 91.3399C376.367 91.3399 376.675 91.3399 377.335 91.2079C378.567 90.9439 378.919 89.2279 379.139 87.7319Z" fill="black"/>
<path d="M349.531 79.3719V71.6279C349.531 64.9399 349.531 63.7079 349.443 62.2999C349.355 60.8039 349.003 60.0999 347.551 59.7919C347.199 59.7039 346.451 59.6599 345.835 59.6599C345.351 59.6599 345.087 59.5719 345.087 59.2639C345.087 58.9559 345.395 58.8679 346.055 58.8679C348.387 58.8679 351.159 58.9999 352.083 58.9999C353.579 58.9999 356.923 58.8679 358.287 58.8679C361.059 58.8679 364.007 59.1319 366.383 60.7599C367.615 61.5959 369.375 63.8399 369.375 66.7879C369.375 70.0439 368.011 73.0359 363.567 76.6439C367.483 81.5719 370.519 85.4879 373.115 88.2159C375.579 90.7679 377.383 91.0759 378.043 91.2079C378.527 91.2959 378.923 91.3399 379.275 91.3399C379.627 91.3399 379.803 91.4719 379.803 91.6919C379.803 92.0439 379.495 92.1319 378.967 92.1319H374.787C372.323 92.1319 371.223 91.9119 370.079 91.2959C368.187 90.2839 366.515 88.2159 364.051 84.8279C362.291 82.4079 360.267 79.4159 359.695 78.7559C359.475 78.4919 359.211 78.4479 358.903 78.4479L355.075 78.3599C354.855 78.3599 354.723 78.4479 354.723 78.7119V79.3279C354.723 83.4199 354.723 86.8959 354.943 88.7439C355.075 90.0199 355.339 90.9879 356.659 91.1639C357.319 91.2519 358.287 91.3399 358.815 91.3399C359.167 91.3399 359.343 91.4719 359.343 91.6919C359.343 91.9999 359.035 92.1319 358.463 92.1319C355.911 92.1319 352.655 91.9999 351.995 91.9999C351.159 91.9999 348.387 92.1319 346.627 92.1319C346.055 92.1319 345.747 91.9999 345.747 91.6919C345.747 91.4719 345.923 91.3399 346.451 91.3399C347.111 91.3399 347.639 91.2519 348.035 91.1639C348.915 90.9879 349.135 90.0199 349.311 88.7439C349.531 86.8959 349.531 83.4199 349.531 79.3719ZM354.723 61.7279V75.1039C354.723 75.5879 354.811 75.7639 355.119 75.8959C356.043 76.2039 357.363 76.3359 358.463 76.3359C360.223 76.3359 360.795 76.1599 361.587 75.5879C362.907 74.6199 364.183 72.5959 364.183 68.9879C364.183 62.7399 360.047 60.9359 357.451 60.9359C356.351 60.9359 355.559 60.9799 355.119 61.1119C354.811 61.1999 354.723 61.3759 354.723 61.7279Z" fill="black"/>
<path d="M331.175 80.6479H321.363C321.143 80.6479 321.055 80.7359 320.967 80.9999L318.591 87.2919C318.151 88.3919 317.931 89.4479 317.931 89.9759C317.931 90.7679 318.327 91.3399 319.691 91.3399H320.351C320.879 91.3399 321.011 91.4279 321.011 91.6919C321.011 92.0439 320.747 92.1319 320.263 92.1319C318.855 92.1319 316.963 91.9999 315.599 91.9999C315.115 91.9999 312.695 92.1319 310.407 92.1319C309.835 92.1319 309.571 92.0439 309.571 91.6919C309.571 91.4279 309.747 91.3399 310.099 91.3399C310.495 91.3399 311.111 91.2959 311.463 91.2519C313.487 90.9879 314.323 89.4919 315.203 87.2919L326.247 59.6599C326.775 58.3839 327.039 57.8999 327.479 57.8999C327.875 57.8999 328.139 58.2959 328.579 59.3079C329.635 61.7279 336.675 79.6799 339.491 86.3679C341.163 90.3279 342.439 90.9439 343.363 91.1639C344.023 91.2959 344.683 91.3399 345.211 91.3399C345.563 91.3399 345.783 91.3839 345.783 91.6919C345.783 92.0439 345.387 92.1319 343.759 92.1319C342.175 92.1319 338.963 92.1319 335.443 92.0439C334.651 91.9999 334.123 91.9999 334.123 91.6919C334.123 91.4279 334.299 91.3399 334.739 91.2959C335.047 91.2079 335.355 90.8119 335.135 90.2839L331.615 80.9559C331.527 80.7359 331.395 80.6479 331.175 80.6479ZM322.243 78.4479H330.339C330.559 78.4479 330.603 78.3159 330.559 78.1839L326.599 67.3159C326.555 67.1399 326.511 66.9199 326.379 66.9199C326.247 66.9199 326.159 67.1399 326.115 67.3159L322.067 78.1399C322.023 78.3159 322.067 78.4479 322.243 78.4479Z" fill="black"/>
<path d="M283.493 72.8599H300.301C300.433 72.8599 300.565 72.7719 300.565 72.5519V71.6279C300.565 64.9399 300.565 63.7079 300.477 62.2999C300.389 60.8039 300.037 60.0999 298.585 59.7919C298.233 59.7039 297.485 59.6599 296.869 59.6599C296.385 59.6599 296.121 59.5719 296.121 59.2639C296.121 58.9559 296.429 58.8679 297.045 58.8679C299.421 58.8679 302.193 58.9999 303.381 58.9999C304.437 58.9999 307.209 58.8679 308.925 58.8679C309.541 58.8679 309.849 58.9559 309.849 59.2639C309.849 59.5719 309.585 59.6599 309.057 59.6599C308.705 59.6599 308.309 59.7039 307.781 59.7919C306.593 60.0119 306.241 60.7599 306.153 62.2999C306.065 63.7079 306.065 64.9399 306.065 71.6279V79.3719C306.065 83.4199 306.065 86.8959 306.285 88.7879C306.417 90.0199 306.681 90.9879 308.001 91.1639C308.617 91.2519 309.585 91.3399 310.245 91.3399C310.729 91.3399 310.949 91.4719 310.949 91.6919C310.949 91.9999 310.597 92.1319 310.069 92.1319C307.209 92.1319 304.437 91.9999 303.205 91.9999C302.193 91.9999 299.421 92.1319 297.705 92.1319C297.089 92.1319 296.781 91.9999 296.781 91.6919C296.781 91.4719 296.957 91.3399 297.485 91.3399C298.145 91.3399 298.673 91.2519 299.069 91.1639C299.949 90.9879 300.169 90.0199 300.345 88.7439C300.565 86.8959 300.565 83.4199 300.565 79.3719V75.4999C300.565 75.3239 300.433 75.2359 300.301 75.2359H283.493C283.361 75.2359 283.229 75.2799 283.229 75.4999V79.3719C283.229 83.4199 283.229 86.8959 283.449 88.7879C283.581 90.0199 283.845 90.9879 285.165 91.1639C285.781 91.2519 286.749 91.3399 287.409 91.3399C287.893 91.3399 288.113 91.4719 288.113 91.6919C288.113 91.9999 287.761 92.1319 287.233 92.1319C284.373 92.1319 281.601 91.9999 280.369 91.9999C279.357 91.9999 276.585 92.1319 274.825 92.1319C274.253 92.1319 273.945 91.9999 273.945 91.6919C273.945 91.4719 274.121 91.3399 274.649 91.3399C275.309 91.3399 275.837 91.2519 276.233 91.1639C277.113 90.9879 277.333 90.0199 277.509 88.7439C277.729 86.8959 277.729 83.4199 277.729 79.3719V71.6279C277.729 64.9399 277.729 63.7079 277.641 62.2999C277.553 60.8039 277.201 60.0999 275.749 59.7919C275.397 59.7039 274.649 59.6599 274.033 59.6599C273.549 59.6599 273.285 59.5719 273.285 59.2639C273.285 58.9559 273.593 58.8679 274.209 58.8679C276.585 58.8679 279.357 58.9999 280.545 58.9999C281.601 58.9999 284.373 58.8679 286.089 58.8679C286.705 58.8679 287.013 58.9559 287.013 59.2639C287.013 59.5719 286.749 59.6599 286.221 59.6599C285.869 59.6599 285.473 59.7039 284.945 59.7919C283.757 60.0119 283.405 60.7599 283.317 62.2999C283.229 63.7079 283.229 64.9399 283.229 71.6279V72.5519C283.229 72.7719 283.361 72.8599 283.493 72.8599Z" fill="black"/>
<path d="M257.004 92.748C254.452 92.748 252.472 92.44 250.58 91.604C249.876 91.296 249.744 91.076 249.744 90.108C249.744 87.688 249.92 85.048 249.964 84.344C250.008 83.684 250.14 83.2 250.492 83.2C250.888 83.2 250.932 83.596 250.932 83.948C250.932 84.52 251.108 85.444 251.328 86.192C252.296 89.448 254.892 90.636 257.62 90.636C261.58 90.636 263.516 87.952 263.516 85.62C263.516 83.464 262.856 81.44 259.204 78.58L257.18 76.996C252.34 73.212 250.668 70.132 250.668 66.568C250.668 61.728 254.716 58.252 260.832 58.252C263.692 58.252 265.54 58.692 266.684 59C267.08 59.088 267.3 59.22 267.3 59.528C267.3 60.1 267.124 61.376 267.124 64.808C267.124 65.776 266.992 66.128 266.64 66.128C266.332 66.128 266.2 65.864 266.2 65.336C266.2 64.94 265.98 63.576 265.056 62.432C264.396 61.596 263.12 60.276 260.26 60.276C257.004 60.276 255.024 62.168 255.024 64.808C255.024 66.832 256.036 68.372 259.688 71.144L260.92 72.068C266.244 76.072 268.136 79.108 268.136 83.288C268.136 85.84 267.168 88.876 264 90.944C261.8 92.352 259.336 92.748 257.004 92.748Z" fill="black"/>
<path d="M222.332 80.6479H212.52C212.3 80.6479 212.212 80.7359 212.124 80.9999L209.748 87.2919C209.308 88.3919 209.088 89.4479 209.088 89.9759C209.088 90.7679 209.484 91.3399 210.848 91.3399H211.508C212.036 91.3399 212.168 91.4279 212.168 91.6919C212.168 92.0439 211.904 92.1319 211.42 92.1319C210.012 92.1319 208.12 91.9999 206.756 91.9999C206.272 91.9999 203.852 92.1319 201.564 92.1319C200.992 92.1319 200.728 92.0439 200.728 91.6919C200.728 91.4279 200.904 91.3399 201.256 91.3399C201.652 91.3399 202.268 91.2959 202.62 91.2519C204.644 90.9879 205.48 89.4919 206.36 87.2919L217.404 59.6599C217.932 58.3839 218.196 57.8999 218.636 57.8999C219.032 57.8999 219.296 58.2959 219.736 59.3079C220.792 61.7279 227.832 79.6799 230.648 86.3679C232.32 90.3279 233.596 90.9439 234.52 91.1639C235.18 91.2959 235.84 91.3399 236.368 91.3399C236.72 91.3399 236.94 91.3839 236.94 91.6919C236.94 92.0439 236.544 92.1319 234.916 92.1319C233.332 92.1319 230.12 92.1319 226.6 92.0439C225.808 91.9999 225.28 91.9999 225.28 91.6919C225.28 91.4279 225.456 91.3399 225.896 91.2959C226.204 91.2079 226.512 90.8119 226.292 90.2839L222.772 80.9559C222.684 80.7359 222.552 80.6479 222.332 80.6479ZM213.4 78.4479H221.496C221.716 78.4479 221.76 78.3159 221.716 78.1839L217.756 67.3159C217.712 67.1399 217.668 66.9199 217.536 66.9199C217.404 66.9199 217.316 67.1399 217.272 67.3159L213.224 78.1399C213.18 78.3159 213.224 78.4479 213.4 78.4479Z" fill="black"/>
<path d="M187.95 84.3439V80.7359C187.95 78.3599 187.51 77.3919 186.938 76.1159C186.63 75.4119 180.734 65.7319 179.194 63.4439C178.094 61.8159 176.994 60.7159 176.158 60.2319C175.586 59.9239 174.838 59.6599 174.31 59.6599C173.958 59.6599 173.65 59.5719 173.65 59.2639C173.65 58.9999 173.958 58.8679 174.486 58.8679C175.278 58.8679 178.578 58.9999 180.03 58.9999C180.954 58.9999 182.758 58.8679 184.738 58.8679C185.178 58.8679 185.398 58.9999 185.398 59.2639C185.398 59.5279 185.09 59.5719 184.43 59.7479C184.034 59.8359 183.814 60.1879 183.814 60.5399C183.814 60.8919 184.034 61.4199 184.342 62.0359C184.958 63.3559 191.118 73.9599 191.822 75.1919C192.262 74.1359 197.806 64.4559 198.422 63.0919C198.862 62.1239 199.038 61.3759 199.038 60.8039C199.038 60.3639 198.862 59.8799 198.114 59.7039C197.718 59.6159 197.322 59.5279 197.322 59.2639C197.322 58.9559 197.542 58.8679 198.07 58.8679C199.522 58.8679 200.93 58.9999 202.206 58.9999C203.174 58.9999 206.078 58.8679 206.914 58.8679C207.398 58.8679 207.706 58.9559 207.706 59.2199C207.706 59.5279 207.354 59.6599 206.87 59.6599C206.43 59.6599 205.594 59.8359 204.934 60.1879C204.01 60.6279 203.526 61.1559 202.558 62.3439C201.106 64.1039 194.946 74.4439 194.154 76.3359C193.494 77.9199 193.494 79.2839 193.494 80.7359V84.3439C193.494 85.0479 193.494 86.8959 193.626 88.7439C193.714 90.0199 194.11 90.9879 195.43 91.1639C196.046 91.2519 197.014 91.3399 197.63 91.3399C198.114 91.3399 198.334 91.4719 198.334 91.6919C198.334 91.9999 197.982 92.1319 197.41 92.1319C194.638 92.1319 191.866 91.9999 190.678 91.9999C189.578 91.9999 186.806 92.1319 185.178 92.1319C184.562 92.1319 184.21 92.0439 184.21 91.6919C184.21 91.4719 184.43 91.3399 184.914 91.3399C185.53 91.3399 186.058 91.2519 186.454 91.1639C187.334 90.9879 187.73 90.0199 187.818 88.7439C187.95 86.8959 187.95 85.0479 187.95 84.3439Z" fill="black"/>
<path d="M166.213 80.6479H156.401C156.181 80.6479 156.093 80.7359 156.005 80.9999L153.629 87.2919C153.189 88.3919 152.969 89.4479 152.969 89.9759C152.969 90.7679 153.365 91.3399 154.729 91.3399H155.389C155.917 91.3399 156.049 91.4279 156.049 91.6919C156.049 92.0439 155.785 92.1319 155.301 92.1319C153.893 92.1319 152.001 91.9999 150.637 91.9999C150.153 91.9999 147.733 92.1319 145.445 92.1319C144.873 92.1319 144.609 92.0439 144.609 91.6919C144.609 91.4279 144.785 91.3399 145.137 91.3399C145.533 91.3399 146.149 91.2959 146.501 91.2519C148.525 90.9879 149.361 89.4919 150.241 87.2919L161.285 59.6599C161.813 58.3839 162.077 57.8999 162.517 57.8999C162.913 57.8999 163.177 58.2959 163.617 59.3079C164.673 61.7279 171.713 79.6799 174.529 86.3679C176.201 90.3279 177.477 90.9439 178.401 91.1639C179.061 91.2959 179.721 91.3399 180.249 91.3399C180.601 91.3399 180.821 91.3839 180.821 91.6919C180.821 92.0439 180.425 92.1319 178.797 92.1319C177.213 92.1319 174.001 92.1319 170.481 92.0439C169.689 91.9999 169.161 91.9999 169.161 91.6919C169.161 91.4279 169.337 91.3399 169.777 91.2959C170.085 91.2079 170.393 90.8119 170.173 90.2839L166.653 80.9559C166.565 80.7359 166.433 80.6479 166.213 80.6479ZM157.281 78.4479H165.377C165.597 78.4479 165.641 78.3159 165.597 78.1839L161.637 67.3159C161.593 67.1399 161.549 66.9199 161.417 66.9199C161.285 66.9199 161.197 67.1399 161.153 67.3159L157.105 78.1399C157.061 78.3159 157.105 78.4479 157.281 78.4479Z" fill="black"/>
<path d="M137.216 84.2559V71.6279C137.216 64.9399 137.216 63.7079 137.128 62.2999C137.04 60.8039 136.688 60.0999 135.236 59.7919C134.884 59.7039 134.136 59.6599 133.52 59.6599C133.036 59.6599 132.772 59.5719 132.772 59.2639C132.772 58.9559 133.08 58.8679 133.74 58.8679C136.072 58.8679 138.844 58.9999 139.988 58.9999C141.044 58.9999 143.816 58.8679 145.532 58.8679C146.148 58.8679 146.456 58.9559 146.456 59.2639C146.456 59.5719 146.192 59.6599 145.664 59.6599C145.18 59.6599 144.916 59.7039 144.388 59.7919C143.2 60.0119 142.848 60.7599 142.76 62.2999C142.672 63.7079 142.672 64.9399 142.672 71.6279V79.7679C142.672 81.6599 142.804 83.7719 142.804 85.9719C142.804 88.4799 142.628 91.2959 141.748 93.7599C140.824 96.4439 138.492 99.4799 134.268 102.076C133.696 102.428 132.992 102.78 132.068 103.22C131.76 103.396 131.408 103.484 131.188 103.484C131.012 103.484 130.836 103.352 130.836 103.132C130.836 102.912 131.056 102.736 131.804 102.34C132.376 102.032 133.036 101.548 133.916 100.668C137.26 97.2799 137.216 92.8799 137.216 84.2559Z" fill="black"/>
<path d="M305.038 31.816V26.1839C305.038 21.32 305.038 20.424 304.974 19.4C304.91 18.3119 304.654 17.7999 303.598 17.5759C303.342 17.5119 302.798 17.4799 302.35 17.4799C301.998 17.4799 301.806 17.4159 301.806 17.1919C301.806 16.9679 302.03 16.9039 302.51 16.9039C303.374 16.9039 304.302 16.9359 305.102 16.9359C305.934 16.9679 306.67 16.9999 307.118 16.9999C308.142 16.9999 314.51 16.9999 315.118 16.9679C315.726 16.9039 316.238 16.8399 316.494 16.7759C316.654 16.7439 316.846 16.6479 317.006 16.6479C317.166 16.6479 317.198 16.7759 317.198 16.9359C317.198 17.1599 317.038 17.5439 316.942 19.0159C316.91 19.3359 316.846 20.7439 316.782 21.1279C316.75 21.2879 316.686 21.4799 316.462 21.4799C316.238 21.4799 316.174 21.32 316.174 21.0319C316.174 20.8079 316.142 20.264 315.982 19.8799C315.758 19.3039 315.438 18.9199 313.838 18.7279C313.294 18.6639 309.934 18.5999 309.294 18.5999C309.134 18.5999 309.07 18.6959 309.07 18.9199V27.016C309.07 27.24 309.102 27.3679 309.294 27.3679C309.998 27.3679 313.678 27.3679 314.414 27.3039C315.182 27.24 315.662 27.1439 315.95 26.8239C316.174 26.5679 316.302 26.4079 316.462 26.4079C316.59 26.4079 316.686 26.4719 316.686 26.6639C316.686 26.8559 316.558 27.368 316.43 29C316.398 29.64 316.302 30.9199 316.302 31.1439C316.302 31.4 316.302 31.7519 316.014 31.7519C315.79 31.7519 315.726 31.624 315.726 31.464C315.694 31.144 315.694 30.728 315.598 30.312C315.438 29.672 314.99 29.1919 313.806 29.0639C313.198 28.9999 310.03 28.9679 309.262 28.9679C309.102 28.9679 309.07 29.0959 309.07 29.2879V31.816C309.07 32.9039 309.038 35.848 309.07 36.776C309.134 38.984 309.646 39.464 312.91 39.464C313.742 39.464 315.086 39.464 315.918 39.08C316.75 38.696 317.134 38.024 317.358 36.712C317.422 36.36 317.486 36.232 317.71 36.232C317.966 36.232 317.966 36.4879 317.966 36.8079C317.966 37.5439 317.71 39.72 317.55 40.36C317.326 41.192 317.038 41.1919 315.822 41.1919C313.422 41.1919 311.662 41.128 310.286 41.096C308.91 41.032 307.918 41 306.958 41C306.606 41 305.902 40.9999 305.134 41.0319C304.398 41.0319 303.566 41.096 302.926 41.096C302.51 41.096 302.286 40.9999 302.286 40.7759C302.286 40.6159 302.414 40.52 302.798 40.52C303.278 40.52 303.662 40.456 303.95 40.392C304.59 40.264 304.75 39.56 304.878 38.632C305.038 37.288 305.038 34.76 305.038 31.816Z" fill="black"/>
<path d="M287.855 31.8161V18.6961L283.087 18.8241C281.231 18.8881 280.463 19.0481 279.983 19.7521C279.663 20.2321 279.503 20.6161 279.439 20.8721C279.375 21.1281 279.279 21.2561 279.087 21.2561C278.863 21.2561 278.799 21.0961 278.799 20.7441C278.799 20.2321 279.407 17.3201 279.471 17.0641C279.567 16.6481 279.663 16.4561 279.855 16.4561C280.111 16.4561 280.431 16.7761 281.231 16.8401C282.159 16.9361 283.375 17.0001 284.431 17.0001H297.103C298.127 17.0001 298.831 16.9041 299.311 16.8401C299.791 16.7441 300.047 16.6801 300.175 16.6801C300.399 16.6801 300.431 16.8721 300.431 17.3521C300.431 18.0241 300.335 20.2321 300.335 21.0641C300.303 21.3841 300.239 21.5761 300.047 21.5761C299.791 21.5761 299.727 21.4161 299.695 20.9361L299.663 20.5841C299.599 19.7521 298.735 18.8561 295.887 18.7921L291.855 18.6961V31.8161C291.855 34.7601 291.855 37.2881 292.015 38.6641C292.111 39.5601 292.303 40.2641 293.263 40.3921C293.711 40.4561 294.415 40.5201 294.895 40.5201C295.247 40.5201 295.407 40.6161 295.407 40.7761C295.407 41.0001 295.151 41.0961 294.799 41.0961C292.687 41.0961 290.671 41.0001 289.775 41.0001C289.039 41.0001 287.023 41.0961 285.743 41.0961C285.327 41.0961 285.103 41.0001 285.103 40.7761C285.103 40.6161 285.231 40.5201 285.615 40.5201C286.095 40.5201 286.479 40.4561 286.767 40.3921C287.407 40.2641 287.599 39.5601 287.695 38.6321C287.855 37.2881 287.855 34.7601 287.855 31.8161Z" fill="black"/>
<path d="M272.982 32.744H265.847C265.687 32.744 265.623 32.808 265.559 33L263.831 37.576C263.511 38.376 263.351 39.144 263.351 39.528C263.351 40.104 263.639 40.52 264.631 40.52H265.111C265.495 40.52 265.59 40.584 265.59 40.776C265.59 41.032 265.399 41.096 265.047 41.096C264.023 41.096 262.647 41 261.655 41C261.303 41 259.543 41.096 257.879 41.096C257.463 41.096 257.271 41.032 257.271 40.776C257.271 40.584 257.399 40.52 257.655 40.52C257.943 40.52 258.391 40.488 258.647 40.456C260.119 40.264 260.727 39.176 261.367 37.576L269.398 17.48C269.782 16.552 269.975 16.2 270.295 16.2C270.583 16.2 270.775 16.488 271.095 17.224C271.863 18.984 276.983 32.04 279.031 36.904C280.247 39.784 281.175 40.232 281.847 40.392C282.327 40.488 282.807 40.52 283.191 40.52C283.447 40.52 283.607 40.552 283.607 40.776C283.607 41.032 283.319 41.096 282.135 41.096C280.983 41.096 278.647 41.096 276.087 41.032C275.511 41 275.127 41 275.127 40.776C275.127 40.584 275.255 40.52 275.575 40.488C275.799 40.424 276.023 40.136 275.863 39.752L273.303 32.968C273.239 32.808 273.142 32.744 272.982 32.744ZM266.487 31.144H272.375C272.535 31.144 272.567 31.048 272.535 30.952L269.655 23.048C269.623 22.92 269.591 22.76 269.495 22.76C269.399 22.76 269.335 22.92 269.303 23.048L266.359 30.92C266.327 31.048 266.359 31.144 266.487 31.144Z" fill="black"/>
<path d="M250.74 41.5441C246.356 41.5441 242.676 40.5841 239.764 38.0561C236.628 35.3041 235.796 31.7201 235.796 28.6161C235.796 26.4401 236.468 22.6641 239.54 19.8481C241.844 17.7361 244.884 16.4561 249.652 16.4561C251.636 16.4561 252.82 16.5841 254.292 16.7761C255.508 16.9361 256.532 17.2241 257.492 17.3201C257.844 17.3521 257.972 17.5121 257.972 17.7041C257.972 17.9601 257.876 18.3441 257.812 19.4641C257.748 20.5201 257.78 22.2801 257.716 22.9201C257.684 23.4001 257.62 23.6561 257.332 23.6561C257.076 23.6561 257.012 23.4001 257.012 22.9521C256.98 21.9601 256.564 20.8401 255.764 20.0081C254.708 18.8881 252.212 18.0241 249.268 18.0241C246.484 18.0241 244.66 18.7281 243.252 20.0081C240.916 22.1521 240.308 25.1921 240.308 28.2961C240.308 35.9121 246.1 39.6881 250.388 39.6881C253.236 39.6881 254.964 39.3681 256.244 37.8961C256.788 37.2881 257.204 36.3601 257.332 35.7841C257.428 35.2721 257.492 35.1441 257.748 35.1441C257.972 35.1441 258.036 35.3681 258.036 35.6241C258.036 36.0081 257.652 38.7921 257.332 39.8801C257.172 40.4241 257.044 40.5841 256.5 40.8081C255.22 41.3201 252.788 41.5441 250.74 41.5441Z" fill="black"/>
<path d="M220.316 41.5441C211.132 41.5441 207.42 34.6641 207.42 29.0001C207.42 23.5281 211.036 16.4561 220.636 16.4561C228.604 16.4561 233.564 21.0961 233.564 28.4241C233.564 35.7521 228.444 41.5441 220.316 41.5441ZM221.66 39.9441C223.9 39.9441 229.084 38.8561 229.084 29.6081C229.084 22.4401 224.956 17.9921 219.708 17.9921C216.028 17.9921 211.836 20.0401 211.836 28.0081C211.836 34.6641 215.516 39.9441 221.66 39.9441Z" fill="black"/>
<path d="M194.152 39.5921L186.088 20.0401C185.352 18.2801 184.808 17.9281 183.656 17.6081C183.176 17.4801 182.664 17.4801 182.408 17.4801C182.12 17.4801 182.024 17.3841 182.024 17.1921C182.024 16.9361 182.376 16.9041 182.856 16.9041C184.552 16.9041 186.376 17.0001 187.496 17.0001C188.296 17.0001 189.832 16.9041 191.432 16.9041C191.816 16.9041 192.168 16.9681 192.168 17.1921C192.168 17.4161 191.976 17.4801 191.688 17.4801C191.176 17.4801 190.696 17.5121 190.44 17.7041C190.216 17.8641 190.12 18.0881 190.12 18.3761C190.12 18.7921 190.408 19.6881 190.856 20.8401L196.36 35.3681H196.488C197.864 31.8481 202.024 21.5441 202.792 19.4321C202.952 19.0161 203.08 18.5361 203.08 18.2481C203.08 17.9921 202.952 17.7361 202.664 17.6401C202.28 17.5121 201.8 17.4801 201.384 17.4801C201.096 17.4801 200.84 17.4481 200.84 17.2241C200.84 16.9681 201.128 16.9041 201.736 16.9041C203.336 16.9041 204.68 17.0001 205.096 17.0001C205.64 17.0001 207.144 16.9041 208.104 16.9041C208.52 16.9041 208.776 16.9681 208.776 17.1921C208.776 17.4161 208.584 17.4801 208.264 17.4801C207.944 17.4801 207.272 17.4801 206.696 17.8641C206.28 18.1521 205.8 18.6961 204.936 20.7441C203.688 23.7521 202.824 25.4801 201.096 29.4161C199.048 34.0881 197.544 37.5761 196.84 39.1761C196.008 41.0321 195.816 41.5441 195.368 41.5441C194.952 41.5441 194.76 41.0961 194.152 39.5921Z" fill="black"/>
<path d="M160.374 31.8161V26.1841C160.374 21.3201 160.374 20.4241 160.31 19.4001C160.246 18.3121 159.99 17.8001 158.934 17.5761C158.678 17.5121 158.134 17.4801 157.686 17.4801C157.334 17.4801 157.142 17.4161 157.142 17.1921C157.142 16.9681 157.366 16.9041 157.846 16.9041C159.542 16.9041 161.558 17.0001 162.454 17.0001C163.446 17.0001 165.462 16.9041 167.382 16.9041C171.382 16.9041 176.726 16.9041 180.214 20.5521C181.814 22.2161 183.318 24.8721 183.318 28.6801C183.318 32.7121 181.622 35.7841 179.83 37.6081C178.358 39.1121 175.03 41.3841 169.11 41.3841C167.958 41.3841 166.646 41.2881 165.43 41.1921C164.214 41.0961 163.094 41.0001 162.294 41.0001C161.942 41.0001 161.238 41.0001 160.47 41.0321C159.734 41.0321 158.902 41.0961 158.262 41.0961C157.846 41.0961 157.622 41.0001 157.622 40.7761C157.622 40.6161 157.75 40.5201 158.134 40.5201C158.614 40.5201 158.998 40.4561 159.286 40.3921C159.926 40.2641 160.086 39.5601 160.214 38.6321C160.374 37.2881 160.374 34.7601 160.374 31.8161ZM164.374 25.6721V29.7041C164.374 33.0961 164.406 35.5601 164.438 36.1681C164.47 36.9681 164.534 38.2481 164.79 38.6001C165.206 39.2081 166.454 39.8801 168.982 39.8801C172.246 39.8801 174.422 39.2401 176.342 37.5761C178.39 35.8161 179.03 32.9041 179.03 29.6081C179.03 25.5441 177.334 22.9201 175.958 21.6081C173.014 18.7921 169.366 18.4081 166.87 18.4081C166.23 18.4081 165.046 18.5041 164.79 18.6321C164.502 18.7601 164.406 18.9201 164.406 19.2721C164.374 20.3601 164.374 23.1441 164.374 25.6721Z" fill="black"/>
<path d="M147.664 32.744H140.528C140.368 32.744 140.304 32.808 140.24 33L138.512 37.576C138.192 38.376 138.032 39.144 138.032 39.528C138.032 40.104 138.32 40.52 139.312 40.52H139.792C140.176 40.52 140.272 40.584 140.272 40.776C140.272 41.032 140.08 41.096 139.728 41.096C138.704 41.096 137.328 41 136.336 41C135.984 41 134.224 41.096 132.56 41.096C132.144 41.096 131.952 41.032 131.952 40.776C131.952 40.584 132.08 40.52 132.336 40.52C132.624 40.52 133.072 40.488 133.328 40.456C134.8 40.264 135.408 39.176 136.048 37.576L144.08 17.48C144.464 16.552 144.656 16.2 144.976 16.2C145.264 16.2 145.456 16.488 145.776 17.224C146.544 18.984 151.664 32.04 153.712 36.904C154.928 39.784 155.856 40.232 156.528 40.392C157.008 40.488 157.488 40.52 157.872 40.52C158.128 40.52 158.288 40.552 158.288 40.776C158.288 41.032 158 41.096 156.816 41.096C155.664 41.096 153.328 41.096 150.768 41.032C150.192 41 149.808 41 149.808 40.776C149.808 40.584 149.936 40.52 150.256 40.488C150.48 40.424 150.704 40.136 150.544 39.752L147.984 32.968C147.92 32.808 147.824 32.744 147.664 32.744ZM141.168 31.144H147.056C147.216 31.144 147.248 31.048 147.216 30.952L144.336 23.048C144.304 22.92 144.272 22.76 144.176 22.76C144.08 22.76 144.016 22.92 143.984 23.048L141.04 30.92C141.008 31.048 141.04 31.144 141.168 31.144Z" fill="black"/>
<path d="M101.302 89.3316L50.2471 118.808V29.4765L101.302 0V89.3316Z" fill="#C39111"/>
<path d="M50.8637 29.3661L0 0V58.7323L50.8637 29.3661Z" fill="#C39111"/>
<path d="M0 88.9743V59L50.5 89.5V119L0 88.9743Z" fill="#C39111"/>
</svg>
