<svg width="213" height="69" viewBox="0 0 213 69" fill="none" xmlns="http://www.w3.org/2000/svg">
<path d="M190.88 58.5707C190.433 58.5707 190.209 58.4215 190.209 58.1232C190.209 57.8248 190.418 57.6308 190.836 57.5413L191.507 57.4071C192.104 57.2877 192.551 57.0043 192.85 56.5567C193.148 56.0793 193.402 55.4229 193.61 54.5874L200.548 26.6149C200.607 26.3165 200.697 26.1226 200.816 26.0331C200.965 25.9436 201.1 25.8988 201.219 25.8988C201.368 25.8988 201.502 25.9436 201.622 26.0331C201.771 26.1226 201.875 26.3165 201.935 26.6149L209.007 54.9902C209.215 55.8257 209.454 56.4075 209.723 56.7357C209.991 57.0639 210.409 57.2877 210.976 57.4071L211.647 57.5413C212.065 57.6308 212.274 57.8248 212.274 58.1232C212.274 58.4215 212.05 58.5707 211.602 58.5707H203.949C203.531 58.5707 203.323 58.4066 203.323 58.0784C203.323 57.7502 203.576 57.5712 204.083 57.5413L204.934 57.4518C205.441 57.3921 205.754 57.228 205.874 56.9595C206.023 56.691 206.023 56.2285 205.874 55.5721L204.173 48.6349C203.994 47.8591 203.502 47.4712 202.696 47.4712H197.997C197.221 47.4712 196.728 47.8591 196.52 48.6349L194.998 54.6322C194.55 56.3329 194.998 57.2728 196.341 57.4518L197.012 57.5413C197.519 57.6308 197.773 57.8099 197.773 58.0784C197.773 58.4066 197.564 58.5707 197.146 58.5707H190.88ZM197.862 46.1285H202.785C203.263 46.1285 203.457 45.8749 203.367 45.3677L200.503 33.3731H200.279L197.28 45.3677C197.191 45.8749 197.385 46.1285 197.862 46.1285Z" fill="black"/>
<path d="M175.349 58.1231C175.229 58.1231 175.095 58.0784 174.946 57.9889C174.797 57.8993 174.692 57.7054 174.632 57.407L167.874 29.9716C167.844 29.7627 167.755 29.6732 167.606 29.703C167.457 29.703 167.382 29.8075 167.382 30.0163L166.487 54.7217C166.457 55.5571 166.591 56.1986 166.89 56.6462C167.188 57.0639 167.71 57.3324 168.456 57.4518L169.038 57.5413C169.426 57.5711 169.62 57.7502 169.62 58.0784C169.62 58.4066 169.396 58.5707 168.948 58.5707H162.548C162.101 58.5707 161.877 58.4066 161.877 58.0784C161.877 57.7502 162.071 57.5711 162.459 57.5413L163.041 57.4518C163.816 57.3324 164.339 57.0639 164.607 56.6462C164.905 56.1986 165.07 55.5571 165.099 54.7217L165.995 29.3002C166.024 28.6737 165.935 28.2559 165.726 28.0471C165.517 27.8382 165.07 27.6741 164.383 27.5548L163.354 27.3757C162.966 27.2862 162.772 27.1072 162.772 26.8387C162.772 26.5104 162.996 26.3463 163.443 26.3463H168.814C169.739 26.3463 170.306 26.7939 170.515 27.689L175.93 50.0223C175.99 50.2311 176.08 50.3356 176.199 50.3356C176.348 50.3356 176.438 50.2311 176.467 50.0223L182.107 27.4652C182.286 26.7193 182.763 26.3463 183.539 26.3463H188.82C189.268 26.3463 189.491 26.5104 189.491 26.8387C189.491 27.1072 189.297 27.2862 188.91 27.3757L187.88 27.5548C187.254 27.6741 186.836 27.8382 186.627 28.0471C186.418 28.2559 186.329 28.6737 186.359 29.3002L187.254 55.6168C187.283 56.2434 187.388 56.6611 187.567 56.87C187.746 57.0788 188.149 57.2429 188.775 57.3623L189.805 57.5413C190.193 57.6308 190.387 57.8098 190.387 58.0784C190.387 58.4066 190.163 58.5707 189.715 58.5707H181.614C181.167 58.5707 180.943 58.4066 180.943 58.0784C180.943 57.8098 181.137 57.6308 181.525 57.5413L182.554 57.3623C183.181 57.2429 183.599 57.0788 183.807 56.87C184.016 56.6611 184.106 56.2434 184.076 55.6168L183.315 30.0163C183.315 29.8075 183.241 29.703 183.091 29.703C182.972 29.6732 182.882 29.7478 182.823 29.9268L176.02 57.407C175.96 57.7054 175.856 57.8993 175.707 57.9889C175.587 58.0784 175.468 58.1231 175.349 58.1231Z" fill="black"/>
<path d="M158.444 58.9735C155.848 58.9735 154.192 57.2728 153.476 53.8713L152.447 48.9034C152.119 47.2922 151.746 46.0688 151.328 45.2334C150.94 44.3979 150.388 43.831 149.672 43.5327C148.986 43.2343 148.031 43.0851 146.808 43.0851C146.39 43.0851 146.062 43.2045 145.823 43.4431C145.584 43.652 145.465 43.9205 145.465 44.2488V55.4378C145.465 56.0644 145.584 56.497 145.823 56.7357C146.062 56.9446 146.599 57.1236 147.434 57.2728L149.09 57.5413C149.418 57.601 149.582 57.7651 149.582 58.0336C149.582 58.3917 149.359 58.5707 148.911 58.5707H139.826C139.378 58.5707 139.154 58.4066 139.154 58.0784C139.154 57.8098 139.348 57.6308 139.736 57.5413L140.766 57.3623C141.392 57.2429 141.795 57.0788 141.974 56.87C142.183 56.6611 142.287 56.2434 142.287 55.6168V29.3002C142.287 28.6737 142.183 28.2559 141.974 28.0471C141.795 27.8382 141.392 27.6741 140.766 27.5548L139.736 27.3757C139.348 27.2862 139.154 27.1072 139.154 26.8387C139.154 26.5104 139.378 26.3463 139.826 26.3463H148.911C150.672 26.3463 152.238 26.6895 153.61 27.3757C154.983 28.062 156.057 29.0168 156.833 30.2401C157.609 31.4336 157.997 32.821 157.997 34.4024C157.997 36.2822 157.43 37.9829 156.296 39.5046C155.162 40.9965 153.73 42.0557 151.999 42.6823C151.79 42.742 151.671 42.8464 151.641 42.9956C151.641 43.1149 151.746 43.2194 151.955 43.3089C152.909 43.7564 153.655 44.383 154.192 45.1886C154.759 45.9942 155.192 47.0684 155.49 48.4111L156.475 52.9762C156.803 54.5277 157.191 55.6317 157.639 56.2881C158.086 56.9446 158.653 57.2728 159.339 57.2728C159.578 57.2728 159.787 57.2429 159.966 57.1832C160.175 57.0937 160.428 56.9446 160.727 56.7357C160.965 56.5865 161.189 56.5567 161.398 56.6462C161.607 56.7059 161.711 56.855 161.711 57.0937C161.711 57.601 161.383 58.0485 160.727 58.4364C160.07 58.7945 159.309 58.9735 158.444 58.9735ZM148.464 41.9662C150.492 41.9662 152.029 41.2949 153.073 39.9522C154.118 38.5797 154.64 36.7596 154.64 34.4919C154.64 32.284 154.028 30.5683 152.805 29.345C151.611 28.0918 149.955 27.4652 147.837 27.4652C146.256 27.4652 145.465 28.062 145.465 29.2555V39.5046C145.465 41.1457 146.464 41.9662 148.464 41.9662Z" fill="black"/>
<path d="M118.152 58.5707C117.704 58.5707 117.48 58.4215 117.48 58.1232C117.48 57.8248 117.689 57.6308 118.107 57.5413L118.778 57.4071C119.375 57.2877 119.823 57.0043 120.121 56.5567C120.419 56.0793 120.673 55.4229 120.882 54.5874L127.819 26.6149C127.879 26.3165 127.968 26.1226 128.088 26.0331C128.237 25.9436 128.371 25.8988 128.49 25.8988C128.64 25.8988 128.774 25.9436 128.893 26.0331C129.042 26.1226 129.147 26.3165 129.207 26.6149L136.278 54.9902C136.487 55.8257 136.726 56.4075 136.994 56.7357C137.263 57.0639 137.68 57.2877 138.247 57.4071L138.919 57.5413C139.336 57.6308 139.545 57.8248 139.545 58.1232C139.545 58.4215 139.321 58.5707 138.874 58.5707H131.221C130.803 58.5707 130.594 58.4066 130.594 58.0784C130.594 57.7502 130.848 57.5712 131.355 57.5413L132.205 57.4518C132.712 57.3921 133.026 57.228 133.145 56.9595C133.294 56.691 133.294 56.2285 133.145 55.5721L131.444 48.6349C131.265 47.8591 130.773 47.4712 129.967 47.4712H125.268C124.492 47.4712 124 47.8591 123.791 48.6349L122.269 54.6322C121.822 56.3329 122.269 57.2728 123.612 57.4518L124.283 57.5413C124.791 57.6308 125.044 57.8099 125.044 58.0784C125.044 58.4066 124.835 58.5707 124.418 58.5707H118.152ZM125.134 46.1285H130.057C130.534 46.1285 130.728 45.8749 130.639 45.3677L127.774 33.3731H127.551L124.552 45.3677C124.462 45.8749 124.656 46.1285 125.134 46.1285Z" fill="black"/>
<path d="M96.0752 58.5707C95.6276 58.5707 95.4038 58.4066 95.4038 58.0784C95.4038 57.8098 95.5978 57.6308 95.9856 57.5413L97.015 57.3623C97.6416 57.2429 98.0444 57.0788 98.2234 56.87C98.4323 56.6611 98.5367 56.2434 98.5367 55.6168V29.3002C98.5367 28.6737 98.4323 28.2559 98.2234 28.0471C98.0444 27.8382 97.6416 27.6741 97.015 27.5548L95.9856 27.3757C95.5978 27.2862 95.4038 27.1072 95.4038 26.8387C95.4038 26.5104 95.6276 26.3463 96.0752 26.3463H104.266C104.713 26.3463 104.937 26.5254 104.937 26.8834C104.937 27.152 104.773 27.3161 104.445 27.3757L103.236 27.5548C102.61 27.6443 102.192 27.8084 101.983 28.0471C101.804 28.2858 101.714 28.7184 101.714 29.345V40.5788C101.714 40.9965 101.923 41.2053 102.341 41.2053H111.203C111.62 41.2053 111.829 40.9965 111.829 40.5788V29.345C111.829 28.7184 111.725 28.2858 111.516 28.0471C111.337 27.8084 110.934 27.6443 110.308 27.5548L109.099 27.3757C108.771 27.3161 108.607 27.152 108.607 26.8834C108.607 26.5254 108.831 26.3463 109.278 26.3463H117.469C117.916 26.3463 118.14 26.5104 118.14 26.8387C118.14 27.1072 117.946 27.2862 117.558 27.3757L116.529 27.5548C115.902 27.6741 115.484 27.8382 115.275 28.0471C115.096 28.2559 115.007 28.6737 115.007 29.3002V55.6168C115.007 56.2434 115.096 56.6611 115.275 56.87C115.484 57.0788 115.902 57.2429 116.529 57.3623L117.558 57.5413C117.946 57.6308 118.14 57.8098 118.14 58.0784C118.14 58.4066 117.916 58.5707 117.469 58.5707H109.278C108.831 58.5707 108.607 58.3917 108.607 58.0336C108.607 57.7651 108.771 57.601 109.099 57.5413L110.308 57.3623C110.934 57.2728 111.337 57.1087 111.516 56.87C111.725 56.6313 111.829 56.1986 111.829 55.572V43.1746C111.829 42.7569 111.62 42.548 111.203 42.548H102.341C101.923 42.548 101.714 42.7569 101.714 43.1746V55.572C101.714 56.1986 101.804 56.6313 101.983 56.87C102.192 57.1087 102.61 57.2728 103.236 57.3623L104.445 57.5413C104.773 57.601 104.937 57.7651 104.937 58.0336C104.937 58.3917 104.713 58.5707 104.266 58.5707H96.0752Z" fill="black"/>
<path d="M84.8249 58.9735C84.2282 58.9735 83.5568 58.9138 82.8109 58.7945C82.0948 58.6751 81.4085 58.526 80.7521 58.3469C80.1255 58.1679 79.6332 57.974 79.2752 57.7651C79.0663 57.6458 78.9022 57.5264 78.7829 57.4071C78.6933 57.2579 78.6486 57.0192 78.6486 56.691L78.4248 49.6643C78.4248 49.0675 78.6187 48.7691 79.0066 48.7691C79.3348 48.7691 79.5586 49.0377 79.678 49.5747L80.0808 51.2755C81.0952 55.5422 82.9899 57.6756 85.7648 57.6756C87.2567 57.6756 88.4352 57.1833 89.3005 56.1986C90.1956 55.1842 90.6432 53.7669 90.6432 51.9468C90.6432 50.1864 90.1807 48.5454 89.2558 47.0237C88.3606 45.5019 86.9135 43.9952 84.9144 42.5033C82.7065 40.9219 81.0952 39.4002 80.0808 37.9382C79.0663 36.4463 78.5591 34.8649 78.5591 33.194C78.5591 30.9861 79.3199 29.2257 80.8416 27.9128C82.3932 26.5701 84.3624 25.8988 86.7494 25.8988C87.6445 25.8988 88.5098 26.0032 89.3453 26.2121C90.1807 26.421 90.867 26.7193 91.4041 27.1072C91.5831 27.2266 91.7173 27.3608 91.8069 27.51C91.9262 27.6592 91.9859 27.8532 91.9859 28.0918L92.1202 34.85C92.1202 35.3572 91.9262 35.6109 91.5383 35.6109C91.2698 35.6109 91.0758 35.402 90.9565 34.9843L90.6432 33.8654C89.9868 31.5679 89.3005 29.897 88.5844 28.8527C87.8982 27.7786 86.8986 27.2415 85.5858 27.2415C84.3028 27.2415 83.2734 27.6592 82.4976 28.4947C81.7517 29.3301 81.3787 30.5087 81.3787 32.0304C81.3787 33.3134 81.7964 34.5367 82.6319 35.7004C83.4673 36.864 84.9294 38.2813 87.018 39.9522C89.2558 41.7723 90.8819 43.5327 91.8964 45.2334C92.9407 46.9043 93.4628 48.6945 93.4628 50.6041C93.4628 52.275 93.0899 53.7371 92.3439 54.9902C91.598 56.2434 90.5686 57.228 89.2558 57.9441C87.9728 58.6304 86.4958 58.9735 84.8249 58.9735Z" fill="black"/>
<path d="M48.3955 58.5707C47.9479 58.5707 47.7241 58.4215 47.7241 58.1232C47.7241 57.8248 47.933 57.6308 48.3507 57.5413L49.022 57.4071C49.6188 57.2877 50.0664 57.0043 50.3647 56.5567C50.6631 56.0793 50.9167 55.4229 51.1256 54.5874L58.0628 26.6149C58.1224 26.3165 58.212 26.1226 58.3313 26.0331C58.4805 25.9436 58.6148 25.8988 58.7341 25.8988C58.8833 25.8988 59.0176 25.9436 59.1369 26.0331C59.2861 26.1226 59.3905 26.3165 59.4502 26.6149L66.5217 54.9902C66.7305 55.8257 66.9692 56.4075 67.2378 56.7357C67.5063 57.0639 67.924 57.2877 68.4909 57.4071L69.1623 57.5413C69.58 57.6308 69.7888 57.8248 69.7888 58.1232C69.7888 58.4215 69.5651 58.5707 69.1175 58.5707H61.4642C61.0465 58.5707 60.8376 58.4066 60.8376 58.0784C60.8376 57.7502 61.0913 57.5712 61.5985 57.5413L62.4489 57.4518C62.9561 57.3921 63.2694 57.228 63.3887 56.9595C63.5379 56.691 63.5379 56.2285 63.3887 55.5721L61.688 48.6349C61.509 47.8591 61.0167 47.4712 60.2111 47.4712H55.5117C54.7359 47.4712 54.2436 47.8591 54.0347 48.6349L52.513 54.6322C52.0655 56.3329 52.513 57.2728 53.8557 57.4518L54.527 57.5413C55.0343 57.6308 55.2879 57.8099 55.2879 58.0784C55.2879 58.4066 55.079 58.5707 54.6613 58.5707H48.3955ZM55.3774 46.1285H60.3006C60.778 46.1285 60.9719 45.8749 60.8824 45.3677L58.018 33.3731H57.7942L54.7956 45.3677C54.7061 45.8749 54.9 46.1285 55.3774 46.1285Z" fill="black"/>
<path d="M35.9442 58.5707C35.4967 58.5707 35.2729 58.4066 35.2729 58.0784C35.2729 57.7502 35.4668 57.5711 35.8547 57.5413L37.8687 57.228C38.4655 57.1385 38.8683 56.9893 39.0771 56.7804C39.286 56.5417 39.3904 56.1091 39.3904 55.4825V44.9201C39.3904 44.2637 39.2412 43.6222 38.9429 42.9956L32.3637 29.2107C32.1549 28.7035 31.9162 28.3156 31.6476 28.0471C31.3791 27.7785 30.9912 27.5846 30.484 27.4652L30.0812 27.3757C29.6635 27.2862 29.4546 27.0923 29.4546 26.7939C29.4546 26.4955 29.6784 26.3463 30.1259 26.3463H37.7792C38.1969 26.3463 38.4058 26.5104 38.4058 26.8387C38.4058 27.1669 38.1522 27.3459 37.6449 27.3757L36.7946 27.4652C36.2873 27.4951 35.9293 27.6592 35.7204 27.9576C35.5116 28.2559 35.5563 28.7184 35.8547 29.345L41.3597 41.0711C41.479 41.2799 41.6282 41.3844 41.8073 41.3844C41.9863 41.3844 42.1355 41.2799 42.2548 41.0711L47.536 30.2849C47.9239 29.5091 48.0134 28.8825 47.8046 28.4051C47.6255 27.8979 47.1929 27.5995 46.5066 27.51L45.522 27.3757C45.0148 27.2862 44.7612 27.1072 44.7612 26.8387C44.7612 26.5104 44.97 26.3463 45.3877 26.3463H51.7431C52.1907 26.3463 52.4144 26.4955 52.4144 26.7939C52.4144 27.0923 52.2056 27.2862 51.7879 27.3757L51.3403 27.4652C50.9226 27.5548 50.5496 27.8084 50.2214 28.2261C49.923 28.6438 49.5202 29.345 49.013 30.3296L43.1499 42.1005C42.9411 42.5182 42.7919 42.921 42.7024 43.3089C42.6129 43.6669 42.5681 44.0847 42.5681 44.562V55.4825C42.5681 56.1091 42.6725 56.5417 42.8814 56.7804C43.1201 56.9893 43.5229 57.1385 44.0898 57.228L46.1038 57.5413C46.4917 57.5711 46.6857 57.7502 46.6857 58.0784C46.6857 58.4066 46.4619 58.5707 46.0143 58.5707H35.9442Z" fill="black"/>
<path d="M12.7309 58.5707C12.2834 58.5707 12.0596 58.4215 12.0596 58.1232C12.0596 57.8248 12.2684 57.6308 12.6862 57.5413L13.3575 57.4071C13.9542 57.2877 14.4018 57.0043 14.7002 56.5567C14.9986 56.0793 15.2522 55.4229 15.461 54.5874L22.3982 26.6149C22.4579 26.3165 22.5474 26.1226 22.6668 26.0331C22.8159 25.9436 22.9502 25.8988 23.0696 25.8988C23.2187 25.8988 23.353 25.9436 23.4724 26.0331C23.6215 26.1226 23.726 26.3165 23.7857 26.6149L30.8571 54.9902C31.066 55.8257 31.3047 56.4075 31.5732 56.7357C31.8417 57.0639 32.2595 57.2877 32.8264 57.4071L33.4977 57.5413C33.9154 57.6308 34.1243 57.8248 34.1243 58.1232C34.1243 58.4215 33.9005 58.5707 33.453 58.5707H25.7997C25.3819 58.5707 25.1731 58.4066 25.1731 58.0784C25.1731 57.7502 25.4267 57.5712 25.9339 57.5413L26.7843 57.4518C27.2915 57.3921 27.6048 57.228 27.7242 56.9595C27.8734 56.691 27.8734 56.2285 27.7242 55.5721L26.0235 48.6349C25.8444 47.8591 25.3521 47.4712 24.5465 47.4712H19.8471C19.0713 47.4712 18.579 47.8591 18.3702 48.6349L16.8485 54.6322C16.4009 56.3329 16.8485 57.2728 18.1911 57.4518L18.8625 57.5413C19.3697 57.6308 19.6233 57.8099 19.6233 58.0784C19.6233 58.4066 19.4145 58.5707 18.9968 58.5707H12.7309ZM19.7129 46.1285H24.636C25.1134 46.1285 25.3074 45.8749 25.2178 45.3677L22.3535 33.3731H22.1297L19.131 45.3677C19.0415 45.8749 19.2355 46.1285 19.7129 46.1285Z" fill="black"/>
<path d="M3.13292 68.1932C2.20796 68.1932 1.46203 67.9396 0.895121 67.4324C0.298374 66.955 0 66.3135 0 65.5079C0 64.9111 0.179024 64.4188 0.537072 64.0309C0.865283 63.643 1.29792 63.4491 1.835 63.4491C2.34223 63.4491 2.70028 63.5983 2.90914 63.8967C3.118 64.195 3.28211 64.5382 3.40146 64.926C3.55065 65.3139 3.71475 65.6571 3.89377 65.9554C4.0728 66.2538 4.35625 66.403 4.74414 66.403C5.31105 66.403 5.74369 66.0748 6.04206 65.4184C6.34044 64.7619 6.48962 63.837 6.48962 62.6435V29.3002C6.48962 28.6737 6.38519 28.2559 6.17633 28.0471C5.99731 27.8382 5.5945 27.6741 4.96792 27.5548L3.93853 27.3757C3.55065 27.2862 3.3567 27.1072 3.3567 26.8387C3.3567 26.5104 3.58048 26.3463 4.02804 26.3463H12.1289C12.5764 26.3463 12.8002 26.5104 12.8002 26.8387C12.8002 27.1072 12.6063 27.2862 12.2184 27.3757L11.189 27.5548C10.5624 27.6741 10.1447 27.8382 9.93584 28.0471C9.75682 28.2559 9.6673 28.6737 9.6673 29.3002V56.6014C9.6673 60.1819 9.08547 63.0015 7.92182 65.0603C6.75816 67.1489 5.16186 68.1932 3.13292 68.1932Z" fill="black"/>
<path d="M81.8507 17.5444C81.612 17.5444 81.4927 17.4569 81.4927 17.2818C81.4927 17.1386 81.5961 17.0431 81.803 16.9954L82.352 16.8999C82.6862 16.8362 82.901 16.7487 82.9965 16.6373C83.1079 16.5259 83.1636 16.3031 83.1636 15.969V1.93347C83.1636 1.5993 83.1079 1.37651 82.9965 1.26512C82.901 1.15373 82.6862 1.0662 82.352 1.00255L81.803 0.90707C81.5961 0.85933 81.4927 0.76385 81.4927 0.620631C81.4927 0.445585 81.612 0.358063 81.8507 0.358063H89.871C90.237 0.358063 90.4359 0.541065 90.4677 0.90707L90.6587 4.86947C90.6905 5.14 90.5871 5.27526 90.3484 5.27526C90.1574 5.27526 90.046 5.17182 90.0142 4.96495L89.871 4.08177C89.696 2.99966 89.3379 2.21196 88.7969 1.71865C88.2558 1.20942 87.5079 0.954809 86.5531 0.954809C85.9166 0.954809 85.471 1.05029 85.2164 1.24125C84.9777 1.41629 84.8583 1.73456 84.8583 2.19604V7.94869C84.8583 8.17147 84.9697 8.28286 85.1925 8.28286H86.386C87.0862 8.28286 87.5158 7.9089 87.675 7.16098L87.9137 5.96749C87.9773 5.72879 88.1126 5.62535 88.3195 5.65718C88.4945 5.689 88.582 5.82427 88.582 6.06296V11.4337C88.582 11.6724 88.4945 11.8077 88.3195 11.8395C88.1126 11.8713 87.9773 11.7679 87.9137 11.5292L87.675 10.3595C87.5636 9.80258 87.4044 9.43658 87.1976 9.26153C87.0066 9.08648 86.7281 8.99896 86.3621 8.99896H85.1925C84.9697 8.99896 84.8583 9.11035 84.8583 9.33314V15.3245C84.8583 15.8974 85.0015 16.3111 85.288 16.5657C85.5903 16.8203 86.1314 16.9476 86.9111 16.9476C87.7068 16.9476 88.3831 16.7487 88.9401 16.3509C89.513 15.9371 89.9108 15.1733 90.1336 14.0594L90.42 12.6511C90.4678 12.4442 90.5871 12.3407 90.7781 12.3407C91.0008 12.3407 91.0963 12.476 91.0645 12.7465L90.8258 16.9954C90.794 17.3614 90.5951 17.5444 90.2291 17.5444H81.8507Z" fill="black"/>
<path d="M72.8532 17.5444C72.6145 17.5444 72.4952 17.4568 72.4952 17.2818C72.4952 17.1067 72.5986 17.0113 72.8055 16.9954L73.8796 16.8283C74.1979 16.7805 74.4127 16.701 74.5241 16.5896C74.6355 16.4623 74.6912 16.2315 74.6912 15.8973V1.57541C74.6912 1.35263 74.6434 1.19349 74.548 1.09801C74.4525 1.00253 74.2536 0.954794 73.9512 0.954794C73.3624 0.954794 72.7816 1.20941 72.2087 1.71863C71.6358 2.22786 71.2619 3.04739 71.0868 4.17723L70.9675 4.96494C70.9357 5.17181 70.8243 5.27524 70.6333 5.27524C70.3946 5.27524 70.2912 5.13998 70.323 4.86946L70.5378 0.549007C70.5697 0.183002 70.7129 0 70.9675 0C71.0789 0 71.1823 0.0318266 71.2778 0.0954797C71.3733 0.143219 71.5324 0.198915 71.7552 0.262568C71.9939 0.326221 72.3678 0.358048 72.8771 0.358048H78.2001C78.7093 0.358048 79.0753 0.326221 79.2981 0.262568C79.5368 0.198915 79.7039 0.143219 79.7993 0.0954797C79.9107 0.0318266 80.0142 0 80.1096 0C80.3643 0 80.5075 0.183002 80.5393 0.549007L80.7541 4.86946C80.786 5.13998 80.6825 5.27524 80.4438 5.27524C80.2529 5.27524 80.1415 5.17181 80.1096 4.96494L79.9903 4.17723C79.8312 3.04739 79.4652 2.22786 78.8923 1.71863C78.3194 1.20941 77.7306 0.954794 77.1259 0.954794C76.8236 0.954794 76.6246 1.00253 76.5292 1.09801C76.4337 1.19349 76.3859 1.35263 76.3859 1.57541V15.8973C76.3859 16.2315 76.4416 16.4623 76.553 16.5896C76.6803 16.701 76.8952 16.7805 77.1975 16.8283L78.2717 16.9954C78.4785 17.0113 78.582 17.1067 78.582 17.2818C78.582 17.4568 78.4626 17.5444 78.2239 17.5444H72.8532Z" fill="black"/>
<path d="M60.0582 17.5445C59.8195 17.5445 59.7002 17.4649 59.7002 17.3058C59.7002 17.1467 59.8116 17.0432 60.0344 16.9955L60.3924 16.9239C60.7107 16.8602 60.9494 16.709 61.1085 16.4703C61.2676 16.2157 61.4029 15.8656 61.5143 15.4201L65.2141 0.501394C65.246 0.342261 65.2937 0.238825 65.3574 0.191085C65.4369 0.143346 65.5085 0.119476 65.5722 0.119476C65.6517 0.119476 65.7234 0.143346 65.787 0.191085C65.8666 0.238825 65.9223 0.342261 65.9541 0.501394L69.7255 15.6349C69.8369 16.0805 69.9642 16.3908 70.1075 16.5658C70.2507 16.7409 70.4735 16.8602 70.7758 16.9239L71.1339 16.9955C71.3567 17.0432 71.468 17.1467 71.468 17.3058C71.468 17.4649 71.3487 17.5445 71.11 17.5445H67.0282C66.8055 17.5445 66.6941 17.457 66.6941 17.2819C66.6941 17.1069 66.8293 17.0114 67.0999 16.9955L67.5534 16.9477C67.8239 16.9159 67.991 16.8284 68.0547 16.6852C68.1342 16.542 68.1342 16.2953 68.0547 15.9452L67.1476 12.2454C67.0521 11.8316 66.7895 11.6248 66.3599 11.6248H63.8535C63.4398 11.6248 63.1772 11.8316 63.0658 12.2454L62.2543 15.4439C62.0156 16.351 62.2543 16.8523 62.9704 16.9477L63.3284 16.9955C63.5989 17.0432 63.7342 17.1387 63.7342 17.2819C63.7342 17.457 63.6228 17.5445 63.4 17.5445H60.0582ZM63.7819 10.9087H66.4076C66.6622 10.9087 66.7657 10.7734 66.7179 10.5029L65.1903 4.10575H65.0709L63.4716 10.5029C63.4239 10.7734 63.5273 10.9087 63.7819 10.9087Z" fill="black"/>
<path d="M55.7675 17.7593C54.5899 17.7593 53.5556 17.3933 52.6644 16.6613C51.7892 15.9293 51.1049 14.9029 50.6116 13.5821C50.1342 12.2454 49.8955 10.67 49.8955 8.85585C49.8955 7.10539 50.1581 5.57772 50.6832 4.27283C51.2243 2.95203 51.9404 1.93359 52.8315 1.21749C53.7386 0.485481 54.7411 0.119476 55.8391 0.119476C56.4916 0.119476 57.0644 0.183129 57.5577 0.310434C58.0511 0.421828 58.4887 0.573004 58.8706 0.763963C59.0615 0.875356 59.157 1.04244 59.157 1.26523L59.2286 4.89345C59.2286 5.16398 59.1332 5.29924 58.9422 5.29924C58.7672 5.29924 58.6558 5.1958 58.608 4.98893L58.3693 4.10575C58.0351 2.86451 57.6453 2.0052 57.1997 1.5278C56.77 1.0504 56.2529 0.811702 55.6482 0.811702C54.5342 0.811702 53.6033 1.50393 52.8554 2.88838C52.1234 4.25692 51.7574 6.24608 51.7574 8.85585C51.7574 10.6381 51.9404 12.1419 52.3064 13.3673C52.6883 14.5926 53.1736 15.5155 53.7624 16.1362C54.3671 16.7568 55.0037 17.0671 55.672 17.0671C56.3881 17.0671 56.961 16.8443 57.3907 16.3987C57.8362 15.9532 58.2102 15.0938 58.5125 13.8208L58.799 12.6512C58.8467 12.4125 58.974 12.309 59.1809 12.3409C59.3559 12.3727 59.4435 12.5079 59.4435 12.7466L59.348 16.6136C59.348 16.8363 59.2445 17.0034 59.0377 17.1148C58.6558 17.3058 58.2022 17.457 57.6771 17.5684C57.1679 17.6957 56.5313 17.7593 55.7675 17.7593Z" fill="black"/>
<path d="M42.495 17.7593C41.7311 17.7593 41.015 17.5365 40.3467 17.091C39.6783 16.6295 39.0895 16.0009 38.5803 15.2052C38.087 14.4096 37.6971 13.4787 37.4107 12.4125C37.1401 11.3304 37.0049 10.1687 37.0049 8.92746C37.0049 7.68623 37.1401 6.53252 37.4107 5.46633C37.6971 4.40014 38.087 3.46922 38.5803 2.67355C39.0895 1.86198 39.6783 1.2334 40.3467 0.787833C41.015 0.342262 41.7311 0.119476 42.495 0.119476C43.2588 0.119476 43.9669 0.342262 44.6194 0.787833C45.2877 1.2334 45.8765 1.86198 46.3858 2.67355C46.895 3.46922 47.2848 4.40014 47.5554 5.46633C47.8418 6.53252 47.985 7.68623 47.985 8.92746C47.985 10.1687 47.8418 11.3304 47.5554 12.4125C47.2848 13.4787 46.895 14.4096 46.3858 15.2052C45.8765 16.0009 45.2877 16.6295 44.6194 17.091C43.9669 17.5365 43.2588 17.7593 42.495 17.7593ZM42.495 17.1148C43.6248 17.1148 44.508 16.4385 45.1445 15.0859C45.781 13.7333 46.0993 11.6805 46.0993 8.92746C46.0993 6.17447 45.781 4.12962 45.1445 2.7929C44.508 1.44028 43.6248 0.763963 42.495 0.763963C41.381 0.763963 40.4978 1.44028 39.8454 2.7929C39.2089 4.12962 38.8906 6.17447 38.8906 8.92746C38.8906 11.6805 39.2089 13.7333 39.8454 15.0859C40.4978 16.4385 41.381 17.1148 42.495 17.1148Z" fill="black"/>
<path d="M31.0267 17.7831C30.9631 17.7831 30.8915 17.7592 30.8119 17.7115C30.7323 17.6637 30.6766 17.5603 30.6448 17.4012L26.8734 2.26765C26.762 1.82208 26.6347 1.51177 26.4914 1.33673C26.3641 1.16168 26.1414 1.04233 25.8231 0.97868L25.465 0.90707C25.2423 0.85933 25.1309 0.755894 25.1309 0.596761C25.1309 0.437629 25.2502 0.358063 25.4889 0.358063H29.5707C29.7934 0.358063 29.9048 0.445585 29.9048 0.620631C29.9048 0.795677 29.7696 0.891157 29.499 0.90707L29.0455 0.954809C28.775 0.970723 28.5999 1.05825 28.5204 1.21738C28.4567 1.3606 28.4647 1.60725 28.5443 1.95734L31.3132 13.4388C31.345 13.5342 31.3927 13.582 31.4564 13.582C31.5359 13.582 31.5837 13.5342 31.5996 13.4388L34.3446 2.45861C34.5674 1.55156 34.3287 1.05029 33.6285 0.954809L33.2705 0.90707C33 0.85933 32.8647 0.76385 32.8647 0.620631C32.8647 0.445585 32.9761 0.358063 33.1989 0.358063H36.5407C36.7794 0.358063 36.8987 0.437629 36.8987 0.596761C36.8987 0.755894 36.7873 0.85933 36.5645 0.90707L36.2065 0.97868C35.9041 1.04233 35.6654 1.20146 35.4904 1.45608C35.3313 1.69478 35.196 2.03691 35.0846 2.48248L31.3848 17.4012C31.3529 17.5603 31.2972 17.6637 31.2177 17.7115C31.154 17.7592 31.0904 17.7831 31.0267 17.7831Z" fill="black"/>
<path d="M13.9938 17.5444C13.7551 17.5444 13.6357 17.4569 13.6357 17.2818C13.6357 17.1386 13.7392 17.0431 13.9461 16.9954L14.4951 16.8999C15.0361 16.8044 15.3066 16.4941 15.3066 15.969V1.93347C15.3066 1.5993 15.2509 1.37651 15.1395 1.26512C15.0441 1.15373 14.8292 1.0662 14.4951 1.00255L13.9461 0.90707C13.7392 0.85933 13.6357 0.76385 13.6357 0.620631C13.6357 0.445585 13.7551 0.358063 13.9938 0.358063H18.8155C20.0567 0.358063 21.1309 0.724068 22.0379 1.45608C22.945 2.17217 23.6452 3.18267 24.1385 4.48755C24.6318 5.79244 24.8785 7.3042 24.8785 9.02283C24.8785 10.7574 24.6159 12.2612 24.0908 13.5342C23.5815 14.8073 22.8575 15.7939 21.9186 16.4941C20.9797 17.1943 19.8658 17.5444 18.5768 17.5444H13.9938ZM18.6723 16.9238C20.0886 16.9238 21.1627 16.2474 21.8947 14.8948C22.6426 13.5422 23.0166 11.5849 23.0166 9.02283C23.0166 6.47671 22.6586 4.50347 21.9425 3.1031C21.2423 1.68682 20.2 0.97868 18.8155 0.97868C17.6061 0.97868 17.0014 1.55951 17.0014 2.72118V15.1813C17.0014 15.8178 17.1287 16.2713 17.3833 16.5418C17.6538 16.7965 18.0835 16.9238 18.6723 16.9238Z" fill="black"/>
<path d="M2.43471 17.5445C2.19601 17.5445 2.07666 17.4649 2.07666 17.3058C2.07666 17.1467 2.18805 17.0432 2.41084 16.9955L2.76889 16.9239C3.08715 16.8602 3.32585 16.709 3.48498 16.4703C3.64412 16.2157 3.77938 15.8656 3.89077 15.4201L7.5906 0.501394C7.62243 0.342261 7.67017 0.238825 7.73382 0.191085C7.81339 0.143346 7.885 0.119476 7.94865 0.119476C8.02822 0.119476 8.09983 0.143346 8.16348 0.191085C8.24305 0.238825 8.29874 0.342261 8.33057 0.501394L12.102 15.6349C12.2134 16.0805 12.3407 16.3908 12.4839 16.5658C12.6271 16.7409 12.8499 16.8602 13.1523 16.9239L13.5103 16.9955C13.7331 17.0432 13.8445 17.1467 13.8445 17.3058C13.8445 17.4649 13.7252 17.5445 13.4865 17.5445H9.40471C9.18193 17.5445 9.07054 17.457 9.07054 17.2819C9.07054 17.1069 9.2058 17.0114 9.47633 16.9955L9.92985 16.9477C10.2004 16.9159 10.3675 16.8284 10.4311 16.6852C10.5107 16.542 10.5107 16.2953 10.4311 15.9452L9.52406 12.2454C9.42859 11.8316 9.16602 11.6248 8.73636 11.6248H6.23002C5.81628 11.6248 5.55371 11.8316 5.44231 12.2454L4.63074 15.4439C4.39204 16.351 4.63074 16.8523 5.34683 16.9477L5.70488 16.9955C5.97541 17.0432 6.11067 17.1387 6.11067 17.2819C6.11067 17.457 5.99928 17.5445 5.77649 17.5445H2.43471ZM6.15841 10.9087H8.7841C9.03871 10.9087 9.14215 10.7734 9.09441 10.5029L7.56673 4.10575H7.44738L5.8481 10.5029C5.80036 10.7734 5.9038 10.9087 6.15841 10.9087Z" fill="black"/>
</svg>
