<svg width="515" height="120" viewBox="0 0 515 120" fill="none" xmlns="http://www.w3.org/2000/svg">
<path d="M97.3803 87.2994L52.5098 113.205V34.6946L97.3803 8.78857V87.2994Z" fill="#861888"/>
<path d="M53.0521 34.5976L8.34961 8.78857V60.4066L53.0521 34.5976Z" fill="#861888"/>
<path d="M8.34961 86.9856V60.6421L52.7325 87.4476V113.374L8.34961 86.9856Z" fill="#861888"/>
<path d="M101.991 18.1928C101.991 15.2177 101.989 13.0655 101.851 11.3729C101.714 9.69612 101.449 8.58661 100.985 7.67552C100.1 5.93918 98.6884 4.52724 96.952 3.6425C96.0409 3.17823 94.9309 2.91267 93.2537 2.77565C91.5613 2.6374 89.4095 2.63661 86.4348 2.63661H18.1928C15.2178 2.63661 13.0655 2.63737 11.373 2.77565C9.69603 2.91267 8.58669 3.17829 7.67555 3.6425C5.93917 4.52723 4.52727 5.93913 3.64254 7.67552C3.17833 8.58665 2.9127 9.696 2.77568 11.3729C2.6374 13.0655 2.63664 15.2177 2.63664 18.1928V80.4852C2.63664 84.072 2.65204 85.5747 3.0778 86.9025C3.46781 88.1188 4.10531 89.2414 4.9514 90.1983C5.87516 91.2429 7.15955 92.0231 10.2426 93.8562L44.3632 114.144C47.5791 116.056 48.9349 116.843 50.3488 117.151C51.6435 117.434 52.9841 117.434 54.2788 117.151C55.6926 116.843 57.048 116.056 60.2635 114.144L94.385 93.8562C97.4676 92.0233 98.7516 91.2428 99.6753 90.1983C100.521 89.2414 101.16 88.1188 101.55 86.9025C101.976 85.5747 101.991 84.0719 101.991 80.4852V18.1928ZM104.628 80.4852C104.628 83.8969 104.642 85.8939 104.06 87.7076C103.559 89.2713 102.738 90.7146 101.65 91.9449C100.389 93.3715 98.6647 94.3794 95.7324 96.1229L61.611 116.411C58.5531 118.229 56.7716 119.307 54.8401 119.728C53.1755 120.091 51.4521 120.091 49.7875 119.728C47.8559 119.307 46.0739 118.229 43.0157 116.411L8.89516 96.1229C5.96263 94.3793 4.23823 93.3716 2.97652 91.9449C1.88868 90.7146 1.06795 89.2713 0.566495 87.7076C-0.0149763 85.894 3.61933e-05 83.8968 3.61933e-05 80.4852V18.1928C3.61933e-05 15.2612 -0.000572931 12.9832 0.148517 11.1584C0.298865 9.31823 0.608232 7.82305 1.29345 6.47823C2.43095 4.24583 4.24587 2.43091 6.47827 1.29341C7.82308 0.608196 9.31826 0.298829 11.1584 0.148481C12.9832 -0.00060909 15.2613 4.05149e-08 18.1928 4.05149e-08H86.4348C89.3662 -1.09807e-08 91.6444 -0.000605345 93.4692 0.148481C95.3092 0.298841 96.8046 0.608245 98.1493 1.29341C100.382 2.43094 102.197 4.24588 103.334 6.47823C104.019 7.82304 104.329 9.31823 104.479 11.1584C104.628 12.9832 104.628 15.2613 104.628 18.1928V80.4852Z" fill="#861888"/>
<path d="M319.306 41.8795V10.5054H339.52V13.6638H322.675V24.5711H338.678V27.7295H322.675V38.721H339.52V41.8795H319.306Z" fill="#4A154B"/>
<path d="M304.452 41.8795V13.6638H295.776V10.5054H316.412V13.6638H307.821V41.8795H304.452Z" fill="#4A154B"/>
<path d="M271.665 41.8795L283.12 10.5054H286.741L298.196 41.8795H294.659L291.963 34.2149H277.94L275.203 41.8795H271.665ZM279.035 31.0565H290.784L284.425 13.0321H285.436L279.035 31.0565Z" fill="#4A154B"/>
<path d="M257.59 42.3848C255.372 42.3848 253.336 41.9918 251.483 41.2057C249.63 40.3915 248.016 39.2685 246.64 37.8366C245.293 36.3767 244.24 34.6641 243.482 32.6988C242.724 30.7336 242.345 28.5718 242.345 26.2135C242.345 23.8551 242.724 21.6933 243.482 19.7281C244.24 17.7628 245.293 16.0502 246.64 14.5903C248.016 13.1304 249.63 12.0074 251.483 11.2213C253.336 10.4071 255.372 10 257.59 10C259.723 10 261.632 10.379 263.317 11.137C265.03 11.8951 266.461 12.8777 267.612 14.085C268.792 15.2641 269.634 16.5135 270.139 17.833L266.981 19.2227C266.195 17.3978 264.987 15.9379 263.359 14.843C261.759 13.72 259.836 13.1585 257.59 13.1585C255.287 13.1585 253.238 13.7059 251.441 14.8009C249.644 15.8958 248.241 17.4259 247.23 19.3912C246.219 21.3284 245.714 23.6025 245.714 26.2135C245.714 28.7964 246.219 31.0705 247.23 33.0358C248.241 35.001 249.644 36.5311 251.441 37.6261C253.238 38.6929 255.287 39.2263 257.59 39.2263C259.836 39.2263 261.759 38.6789 263.359 37.5839C264.987 36.489 266.195 35.0291 266.981 33.2042L270.139 34.5939C269.634 35.8854 268.792 37.1347 267.612 38.342C266.461 39.5211 265.03 40.4897 263.317 41.2478C261.632 42.0058 259.723 42.3848 257.59 42.3848Z" fill="#4A154B"/>
<path d="M222.343 42.3848C220.153 42.3848 218.104 41.9918 216.194 41.2057C214.313 40.3915 212.657 39.2685 211.225 37.8366C209.793 36.3767 208.67 34.6641 207.856 32.6988C207.042 30.7055 206.635 28.5297 206.635 26.1713C206.635 23.813 207.042 21.6512 207.856 19.686C208.67 17.6926 209.793 15.98 211.225 14.5482C212.657 13.0883 214.313 11.9653 216.194 11.1792C218.104 10.3931 220.153 10 222.343 10C224.533 10 226.568 10.4071 228.449 11.2213C230.358 12.0074 232.029 13.1304 233.461 14.5903C234.893 16.0221 236.016 17.7207 236.83 19.686C237.644 21.6512 238.051 23.813 238.051 26.1713C238.051 28.5297 237.644 30.7055 236.83 32.6988C236.016 34.6641 234.893 36.3767 233.461 37.8366C232.029 39.2685 230.358 40.3915 228.449 41.2057C226.568 41.9918 224.533 42.3848 222.343 42.3848ZM222.343 39.2263C224.168 39.2263 225.824 38.8894 227.312 38.2156C228.828 37.5418 230.134 36.6013 231.229 35.3941C232.324 34.1868 233.166 32.7971 233.755 31.2249C234.373 29.6527 234.682 27.9682 234.682 26.1713C234.682 24.4026 234.373 22.7321 233.755 21.1599C233.166 19.5877 232.324 18.198 231.229 16.9907C230.134 15.7835 228.828 14.843 227.312 14.1692C225.824 13.4954 224.168 13.1585 222.343 13.1585C220.518 13.1585 218.848 13.4954 217.331 14.1692C215.843 14.843 214.552 15.7835 213.457 16.9907C212.362 18.198 211.506 19.5877 210.888 21.1599C210.299 22.7321 210.004 24.4026 210.004 26.1713C210.004 27.9682 210.299 29.6527 210.888 31.2249C211.506 32.7971 212.362 34.1868 213.457 35.3941C214.552 36.6013 215.857 37.5418 217.374 38.2156C218.89 38.8894 220.546 39.2263 222.343 39.2263Z" fill="#4A154B"/>
<path d="M190.429 41.8795L178.933 10.5054H182.428L192.535 38.8895H191.861L201.926 10.5054H205.464L193.967 41.8795H190.429Z" fill="#4A154B"/>
<path d="M153.007 41.8795V10.5054H163.324C166.441 10.5054 169.15 11.1511 171.452 12.4426C173.754 13.706 175.537 15.5168 176.801 17.8751C178.064 20.2054 178.696 22.9708 178.696 26.1714C178.696 29.3439 178.064 32.1093 176.801 34.4676C175.537 36.8259 173.754 38.6508 171.452 39.9423C169.15 41.2337 166.441 41.8795 163.324 41.8795H153.007ZM156.376 38.721H163.324C165.739 38.721 167.831 38.2157 169.599 37.2049C171.368 36.1662 172.73 34.7062 173.684 32.8252C174.667 30.9442 175.158 28.7262 175.158 26.1714C175.158 23.6165 174.667 21.4126 173.684 19.5596C172.702 17.6786 171.326 16.2327 169.557 15.222C167.788 14.1832 165.711 13.6638 163.324 13.6638H156.376V38.721Z" fill="#4A154B"/>
<path d="M123.555 41.8795L135.009 10.5054H138.631L150.086 41.8795H146.548L143.853 34.2149H129.83L127.092 41.8795H123.555ZM130.924 31.0565H142.674L136.315 13.0321H137.326L130.924 31.0565Z" fill="#4A154B"/>
<path d="M472.096 105.781L487.818 60.2056H498.584L514.306 105.781H505.252L502.01 95.9927H484.392L481.088 105.781H472.096ZM486.778 88.6517H499.624L492.039 65.956H494.363L486.778 88.6517Z" fill="#4A154B"/>
<path d="M423.671 105.781V60.2056H431.624L448.691 83.3907H444.898L461.599 60.2056H469.552V105.781H461.171V69.6876L464.413 70.4829L447.101 93.5457H446.122L429.238 70.4829L431.991 69.6876V105.781H423.671Z" fill="#4A154B"/>
<path d="M385.673 105.781V60.2056H402.618C405.718 60.2056 408.45 60.7765 410.816 61.9185C413.222 63.0196 415.098 64.6509 416.444 66.8124C417.789 68.9331 418.462 71.5229 418.462 74.5816C418.462 77.7219 417.708 80.3932 416.199 82.5955C414.731 84.7977 412.732 86.4291 410.204 87.4894L420.665 105.781H411.244L400.049 85.7765L405.432 88.9576H393.993V105.781H385.673ZM393.993 81.6167H402.741C404.25 81.6167 405.555 81.3312 406.656 80.7602C407.757 80.1485 408.613 79.3124 409.225 78.2521C409.837 77.1917 410.143 75.9682 410.143 74.5816C410.143 73.1542 409.837 71.9307 409.225 70.9111C408.613 69.8508 407.757 69.0351 406.656 68.4641C405.555 67.8524 404.25 67.5465 402.741 67.5465H393.993V81.6167Z" fill="#4A154B"/>
<path d="M340.838 105.781L356.56 60.2056H367.326L383.048 105.781H373.995L370.752 95.9927H353.134L349.831 105.781H340.838ZM355.52 88.6517H368.366L360.781 65.956H363.105L355.52 88.6517Z" fill="#4A154B"/>
<path d="M302.15 105.781V60.2056H310.47V80.0873H329.862V60.2056H338.243V105.781H329.862V87.4283H310.47V105.781H302.15Z" fill="#4A154B"/>
<path d="M281.262 106.515C278.366 106.515 275.675 105.985 273.187 104.924C270.74 103.864 268.619 102.396 266.825 100.52C265.071 98.603 263.786 96.3803 262.971 93.8518L269.883 90.8542C270.985 93.4643 272.575 95.5239 274.655 97.0329C276.735 98.5011 279.08 99.2352 281.69 99.2352C283.158 99.2352 284.423 99.0108 285.483 98.5622C286.584 98.0728 287.42 97.4203 287.991 96.6046C288.603 95.789 288.909 94.8102 288.909 93.6683C288.909 92.3224 288.501 91.2213 287.685 90.3648C286.91 89.4676 285.728 88.7743 284.137 88.2849L275.389 85.4709C271.841 84.3697 269.17 82.718 267.375 80.5157C265.581 78.3134 264.684 75.7237 264.684 72.7466C264.684 70.1364 265.316 67.8322 266.58 65.8338C267.885 63.8355 269.68 62.2857 271.963 61.1846C274.288 60.0426 276.939 59.4717 279.916 59.4717C282.649 59.4717 285.157 59.9611 287.441 60.9399C289.724 61.8779 291.682 63.2033 293.313 64.9162C294.985 66.5883 296.229 68.5663 297.045 70.8501L290.193 73.9089C289.296 71.625 287.95 69.8714 286.156 68.6479C284.361 67.3836 282.281 66.7515 279.916 66.7515C278.529 66.7515 277.306 66.9962 276.246 67.4855C275.185 67.9342 274.349 68.5867 273.737 69.4431C273.166 70.2588 272.881 71.2376 272.881 72.3795C272.881 73.6438 273.289 74.7653 274.104 75.7441C274.92 76.6821 276.164 77.4162 277.836 77.9464L286.217 80.5769C289.847 81.7596 292.559 83.3909 294.353 85.4709C296.188 87.5508 297.106 90.1201 297.106 93.1789C297.106 95.789 296.433 98.0932 295.087 100.092C293.742 102.09 291.886 103.66 289.52 104.802C287.155 105.944 284.402 106.515 281.262 106.515Z" fill="#4A154B"/>
<path d="M211.729 105.781L227.45 60.2056H238.217L253.939 105.781H244.885L241.643 95.9927H224.025L220.721 105.781H211.729ZM226.41 88.6517H239.257L231.671 65.956H233.996L226.41 88.6517Z" fill="#4A154B"/>
<path d="M193.446 105.781V85.593L178.091 60.2056H187.573L199.318 80.0261H195.954L207.638 60.2056H217.12L201.827 85.5318V105.781H193.446Z" fill="#4A154B"/>
<path d="M141.289 105.781L157.011 60.2056H167.778L183.5 105.781H174.446L171.203 95.9927H153.585L150.282 105.781H141.289ZM155.971 88.6517H168.818L161.232 65.956H163.557L155.971 88.6517Z" fill="#4A154B"/>
<path d="M122.628 105.781V98.1338H125.258C127.216 98.1338 128.766 97.5832 129.908 96.4821C131.09 95.3402 131.682 93.8312 131.682 91.9552V60.2056H140.063V91.6493C140.063 94.4633 139.451 96.9307 138.227 99.0514C137.045 101.172 135.332 102.824 133.089 104.007C130.886 105.189 128.276 105.781 125.258 105.781H122.628Z" fill="#4A154B"/>
</svg>
